<?xml version="1.0" encoding="utf-8" standalone="no"?>
<!DOCTYPE svg PUBLIC "-//W3C//DTD SVG 1.1//EN"
  "http://www.w3.org/Graphics/SVG/1.1/DTD/svg11.dtd">
<!-- Created with matplotlib (http://matplotlib.org/) -->
<svg height="328.682197pt" version="1.1" viewBox="0 0 415.649852 328.682197" width="415.649852pt" xmlns="http://www.w3.org/2000/svg" xmlns:xlink="http://www.w3.org/1999/xlink">
 <defs>
  <style type="text/css">
*{stroke-linecap:butt;stroke-linejoin:round;}
  </style>
 </defs>
 <g id="figure_1">
  <g id="patch_1">
   <path d="M 0 328.682197 
L 415.649852 328.682197 
L 415.649852 0 
L 0 0 
z
" style="fill:#ffffff;"/>
  </g>
  <g id="axes_1">
   <g id="patch_2">
    <path d="M 45.329852 287.61418 
L 402.449852 287.61418 
L 402.449852 21.50218 
L 45.329852 21.50218 
z
" style="fill:#eaeaf2;"/>
   </g>
   <g id="matplotlib.axis_1">
    <g id="xtick_1">
     <g id="line2d_1">
      <path clip-path="url(#p51f8e02aed)" d="M 61.562579 287.61418 
L 61.562579 21.50218 
" style="fill:none;stroke:#ffffff;stroke-linecap:round;"/>
     </g>
     <g id="text_1">
      <!-- $10^{1}$ -->
      <defs>
       <path d="M 26.59375 63.796875 
C 26.59375 65.890625 26.5 66 25.09375 66 
C 21.203125 61.359375 15.296875 59.890625 9.703125 59.6875 
C 9.40625 59.6875 8.90625 59.6875 8.796875 59.5 
C 8.703125 59.296875 8.703125 59.09375 8.703125 57 
C 11.796875 57 17 57.59375 21 59.984375 
L 21 7.296875 
C 21 3.796875 20.796875 2.59375 12.203125 2.59375 
L 9.203125 2.59375 
L 9.203125 0 
C 14 0.09375 19 0.1875 23.796875 0.1875 
C 28.59375 0.1875 33.59375 0.09375 38.40625 0 
L 38.40625 2.59375 
L 35.40625 2.59375 
C 26.796875 2.59375 26.59375 3.6875 26.59375 7.296875 
z
" id="CMR17-49"/>
       <path d="M 42 31.84375 
C 42 37.96875 41.90625 48.421875 37.703125 56.453125 
C 34 63.484375 28.09375 66 22.90625 66 
C 18.09375 66 12 63.78125 8.203125 56.5625 
C 4.203125 49.015625 3.796875 39.671875 3.796875 31.84375 
C 3.796875 26.109375 3.90625 17.375 7 9.734375 
C 11.296875 -0.609375 19 -2 22.90625 -2 
C 27.5 -2 34.5 -0.109375 38.59375 9.4375 
C 41.59375 16.375 42 24.5 42 31.84375 
z
M 22.90625 -0.40625 
C 16.5 -0.40625 12.703125 5.125 11.296875 12.75 
C 10.203125 18.6875 10.203125 27.328125 10.203125 32.953125 
C 10.203125 40.6875 10.203125 47.109375 11.5 53.234375 
C 13.40625 61.78125 19 64.390625 22.90625 64.390625 
C 27 64.390625 32.296875 61.671875 34.203125 53.4375 
C 35.5 47.71875 35.59375 40.984375 35.59375 32.953125 
C 35.59375 26.421875 35.59375 18.375 34.40625 12.453125 
C 32.296875 1.5 26.40625 -0.40625 22.90625 -0.40625 
z
" id="CMR17-48"/>
      </defs>
      <g style="fill:#262626;" transform="translate(53.898943 304.724527)scale(0.11 -0.11)">
       <use transform="scale(0.996264)" xlink:href="#CMR17-49"/>
       <use transform="translate(45.690477 0)scale(0.996264)" xlink:href="#CMR17-48"/>
       <use transform="translate(91.380954 36.153639)scale(0.697382)" xlink:href="#CMR17-49"/>
      </g>
     </g>
    </g>
    <g id="xtick_2">
     <g id="line2d_2">
      <path clip-path="url(#p51f8e02aed)" d="M 169.780761 287.61418 
L 169.780761 21.50218 
" style="fill:none;stroke:#ffffff;stroke-linecap:round;"/>
     </g>
     <g id="text_2">
      <!-- $10^{2}$ -->
      <defs>
       <path d="M 41.703125 15.46875 
L 39.90625 15.46875 
C 38.90625 8.390625 38.09375 7.1875 37.703125 6.59375 
C 37.203125 5.796875 30 5.796875 28.59375 5.796875 
L 9.40625 5.796875 
C 13 9.6875 20 16.765625 28.5 24.9375 
C 34.59375 30.71875 41.703125 37.5 41.703125 47.390625 
C 41.703125 59.1875 32.296875 66 21.796875 66 
C 10.796875 66 4.09375 56.296875 4.09375 47.296875 
C 4.09375 43.390625 7 42.890625 8.203125 42.890625 
C 9.203125 42.890625 12.203125 43.484375 12.203125 46.984375 
C 12.203125 50.09375 9.59375 51 8.203125 51 
C 7.59375 51 7 50.890625 6.59375 50.6875 
C 8.5 59.1875 14.296875 63.390625 20.40625 63.390625 
C 29.09375 63.390625 34.796875 56.5 34.796875 47.390625 
C 34.796875 38.703125 29.703125 31.21875 24 24.734375 
L 4.09375 2.296875 
L 4.09375 0 
L 39.296875 0 
z
" id="CMR17-50"/>
      </defs>
      <g style="fill:#262626;" transform="translate(162.117124 304.724527)scale(0.11 -0.11)">
       <use transform="scale(0.996264)" xlink:href="#CMR17-49"/>
       <use transform="translate(45.690477 0)scale(0.996264)" xlink:href="#CMR17-48"/>
       <use transform="translate(91.380954 36.153639)scale(0.697382)" xlink:href="#CMR17-50"/>
      </g>
     </g>
    </g>
    <g id="xtick_3">
     <g id="line2d_3">
      <path clip-path="url(#p51f8e02aed)" d="M 277.998943 287.61418 
L 277.998943 21.50218 
" style="fill:none;stroke:#ffffff;stroke-linecap:round;"/>
     </g>
     <g id="text_3">
      <!-- $10^{3}$ -->
      <defs>
       <path d="M 22.09375 34 
C 31 34 34.90625 26.140625 34.90625 17.09375 
C 34.90625 5.03125 28.5 0.390625 22.703125 0.390625 
C 17.40625 0.390625 8.796875 3.015625 6.09375 10.796875 
C 6.59375 10.59375 7.09375 10.59375 7.59375 10.59375 
C 10 10.59375 11.796875 12.1875 11.796875 14.796875 
C 11.796875 17.6875 9.59375 19 7.59375 19 
C 5.90625 19 3.296875 18.1875 3.296875 14.484375 
C 3.296875 5.234375 12.296875 -2 22.90625 -2 
C 34 -2 42.5 6.75 42.5 16.984375 
C 42.5 26.84375 34.5 34 25 35.09375 
C 32.59375 36.671875 39.90625 43.375 39.90625 52.390625 
C 39.90625 60.25 32 66 23 66 
C 13.90625 66 5.90625 60.34375 5.90625 52.296875 
C 5.90625 48.796875 8.5 48.1875 9.796875 48.1875 
C 11.90625 48.1875 13.703125 49.484375 13.703125 52.09375 
C 13.703125 54.6875 11.90625 56 9.796875 56 
C 9.40625 56 8.90625 56 8.5 55.796875 
C 11.40625 62.484375 19.296875 63.6875 22.796875 63.6875 
C 26.296875 63.6875 32.90625 61.96875 32.90625 52.296875 
C 32.90625 49.484375 32.5 44.546875 29.09375 40.21875 
C 26.09375 36.390625 22.703125 36.1875 19.40625 35.890625 
C 18.90625 35.890625 16.59375 35.6875 16.203125 35.6875 
C 15.5 35.59375 15.09375 35.5 15.09375 34.796875 
C 15.09375 34.09375 15.203125 34 17.203125 34 
z
" id="CMR17-51"/>
      </defs>
      <g style="fill:#262626;" transform="translate(270.335306 304.724527)scale(0.11 -0.11)">
       <use transform="scale(0.996264)" xlink:href="#CMR17-49"/>
       <use transform="translate(45.690477 0)scale(0.996264)" xlink:href="#CMR17-48"/>
       <use transform="translate(91.380954 36.153639)scale(0.697382)" xlink:href="#CMR17-51"/>
      </g>
     </g>
    </g>
    <g id="xtick_4">
     <g id="line2d_4">
      <path clip-path="url(#p51f8e02aed)" d="M 386.217125 287.61418 
L 386.217125 21.50218 
" style="fill:none;stroke:#ffffff;stroke-linecap:round;"/>
     </g>
     <g id="text_4">
      <!-- $10^{4}$ -->
      <defs>
       <path d="M 33.59375 64.796875 
C 33.59375 66.890625 33.5 67 31.703125 67 
L 2 19.59375 
L 2 17 
L 27.796875 17 
L 27.796875 7.1875 
C 27.796875 3.59375 27.59375 2.59375 20.59375 2.59375 
L 18.703125 2.59375 
L 18.703125 0 
C 21.90625 0.1875 27.296875 0.1875 30.703125 0.1875 
C 34.09375 0.1875 39.5 0.1875 42.703125 0 
L 42.703125 2.59375 
L 40.796875 2.59375 
C 33.796875 2.59375 33.59375 3.59375 33.59375 7.1875 
L 33.59375 17 
L 43.796875 17 
L 43.796875 19.59375 
L 33.59375 19.59375 
z
M 28.09375 58.171875 
L 28.09375 19.59375 
L 4 19.59375 
z
" id="CMR17-52"/>
      </defs>
      <g style="fill:#262626;" transform="translate(378.553488 304.724527)scale(0.11 -0.11)">
       <use transform="scale(0.996264)" xlink:href="#CMR17-49"/>
       <use transform="translate(45.690477 0)scale(0.996264)" xlink:href="#CMR17-48"/>
       <use transform="translate(91.380954 36.153639)scale(0.697382)" xlink:href="#CMR17-52"/>
      </g>
     </g>
    </g>
    <g id="xtick_5"/>
    <g id="xtick_6"/>
    <g id="xtick_7"/>
    <g id="xtick_8"/>
    <g id="xtick_9"/>
    <g id="xtick_10"/>
    <g id="xtick_11"/>
    <g id="xtick_12"/>
    <g id="xtick_13"/>
    <g id="xtick_14"/>
    <g id="xtick_15"/>
    <g id="xtick_16"/>
    <g id="xtick_17"/>
    <g id="xtick_18"/>
    <g id="xtick_19"/>
    <g id="xtick_20"/>
    <g id="xtick_21"/>
    <g id="xtick_22"/>
    <g id="xtick_23"/>
    <g id="xtick_24"/>
    <g id="xtick_25"/>
    <g id="xtick_26"/>
    <g id="xtick_27"/>
    <g id="xtick_28"/>
    <g id="xtick_29"/>
    <g id="xtick_30"/>
    <g id="text_5">
     <!-- budget -->
     <defs>
      <path d="M 14.90625 69 
L 7.5 69 
L 7.5 -0.203125 
L 15.09375 -0.203125 
L 15.09375 4.296875 
C 18.90625 0.59375 23.5 -1 27.59375 -1 
C 37.203125 -1 45 8.734375 45 21.59375 
C 45 33.328125 39 44 30.09375 44 
C 23.796875 44 18.203125 41.390625 14.90625 38.6875 
z
M 15.09375 32.734375 
C 17.296875 35.5625 20.40625 37.890625 24.796875 37.890625 
C 30.703125 37.890625 37.40625 33.53125 37.40625 21.59375 
C 37.40625 8.84375 29.40625 5.09375 23.90625 5.09375 
C 21.90625 5.09375 19.796875 5.59375 17.796875 7.3125 
C 15.09375 9.75 15.09375 11.265625 15.09375 12.6875 
z
" id="CMSS17-98"/>
      <path d="M 40.90625 43 
L 33.296875 43 
L 33.296875 15.25 
C 33.296875 7.8125 27.90625 4.796875 22.203125 4.796875 
C 15.59375 4.796875 15 7 15 11.125 
L 15 43 
L 7.40625 43 
L 7.40625 10.625 
C 7.40625 2.796875 10.09375 -1 17 -1 
C 20.40625 -1 28.09375 -0.203125 33.5 4.796875 
L 33.5 -0.203125 
L 40.90625 -0.203125 
z
" id="CMSS17-117"/>
      <path d="M 40.796875 69 
L 33.40625 69 
L 33.40625 38.984375 
C 30.296875 41.59375 25.203125 44 19.59375 44 
C 10.5 44 3.296875 34.046875 3.296875 21.484375 
C 3.296875 8.9375 10.40625 -1 19.296875 -1 
C 26.203125 -1 30.796875 2.6875 33.203125 4.796875 
L 33.203125 -0.203125 
L 40.796875 -0.203125 
z
M 33.203125 13.296875 
C 33.203125 11.875 33.203125 10.359375 30.09375 7.625 
C 28.09375 5.90625 25.703125 5.09375 23.40625 5.09375 
C 18 5.09375 10.90625 9.140625 10.90625 21.390625 
C 10.90625 34.140625 18.90625 37.890625 24.40625 37.890625 
C 28.09375 37.890625 31.09375 36.0625 33.203125 33.03125 
z
" id="CMSS17-100"/>
      <path d="M 44.5 44 
C 38.796875 43.890625 33.90625 42.796875 29.90625 40.890625 
C 26.59375 43.484375 23.203125 44 20.90625 44 
C 12.203125 44 5.59375 36.8125 5.59375 28.5 
C 5.59375 23.140625 8.59375 19.09375 8.796875 18.890625 
C 7 16.390625 6 13.6875 6 10.6875 
C 6 7.1875 7.40625 4.6875 8.5 3.296875 
C 3.296875 0.09375 2.59375 -4.8125 2.59375 -6.703125 
C 2.59375 -14 11.703125 -20 23.40625 -20 
C 35.203125 -20 44.296875 -14 44.296875 -6.609375 
C 44.296875 7.1875 29 7.296875 24.796875 7.296875 
L 16.703125 7.296875 
C 15.203125 7.296875 11.203125 7.296875 11.203125 12.390625 
C 11.203125 14.390625 12.09375 15.6875 12.203125 15.796875 
C 13.703125 14.6875 16.796875 13 20.90625 13 
C 29.203125 13 36.09375 19.984375 36.09375 28.5 
C 36.09375 33.25 33.90625 36.703125 33 37.890625 
L 33.296875 37.890625 
C 33.59375 37.890625 37.796875 38.1875 39.296875 38.1875 
C 42.5 38.1875 42.796875 38.09375 45.59375 37.796875 
z
M 20.90625 18.5 
C 17.5 18.5 12.703125 20.578125 12.703125 28.5 
C 12.703125 37.109375 18.203125 38.484375 20.796875 38.484375 
C 24.203125 38.484375 29 36.40625 29 28.5 
C 29 19.875 23.5 18.5 20.90625 18.5 
z
M 24.703125 0 
C 27.09375 0 37.203125 0 37.203125 -6.8125 
C 37.203125 -11.109375 31 -14.5 23.5 -14.5 
C 15.90625 -14.5 9.703125 -11.203125 9.703125 -6.703125 
C 9.703125 -6.203125 9.703125 0 16.59375 0 
z
" id="CMSS17-103"/>
      <path d="M 39.09375 21.484375 
C 39.09375 24.796875 38.90625 31.265625 35.703125 36.671875 
C 32.203125 42.390625 26.5 44 22.203125 44 
C 11.796875 44 3 34.125 3 21.296875 
C 3 9.046875 12.09375 -1 23.59375 -1 
C 28.09375 -1 33.59375 0.296875 38.59375 3.890625 
C 38.59375 4.296875 38.40625 6.46875 38.296875 6.578125 
C 38.296875 6.765625 38 9.828125 38 10.234375 
C 33.203125 6.375 27.703125 5.09375 23.703125 5.09375 
C 17.296875 5.09375 10.40625 10.421875 10.09375 21.484375 
z
M 10.90625 27 
C 12.203125 32.59375 16.59375 37.890625 22.203125 37.890625 
C 23.703125 37.890625 30.703125 37.6875 32.5 27 
z
" id="CMSS17-101"/>
      <path d="M 16.703125 37.1875 
L 29.703125 37.1875 
L 29.703125 43 
L 16.703125 43 
L 16.703125 55 
L 9.59375 55 
L 9.59375 43 
L 1.703125 43 
L 1.703125 37.1875 
L 9.40625 37.1875 
L 9.40625 11.734375 
C 9.40625 6 10.703125 -1 17.296875 -1 
C 22.296875 -1 26.90625 0.390625 31.296875 2.6875 
L 29.703125 8.609375 
C 27.296875 6.5 24.40625 5.296875 21.296875 5.296875 
C 16.90625 5.296875 16.703125 10.921875 16.703125 13.4375 
z
" id="CMSS17-116"/>
     </defs>
     <g style="fill:#262626;" transform="translate(207.240685 319.157601)scale(0.12 -0.12)">
      <use transform="scale(0.996264)" xlink:href="#CMSS17-98"/>
      <use transform="translate(48.204943 0)scale(0.996264)" xlink:href="#CMSS17-117"/>
      <use transform="translate(96.409886 0)scale(0.996264)" xlink:href="#CMSS17-100"/>
      <use transform="translate(144.614829 0)scale(0.996264)" xlink:href="#CMSS17-103"/>
      <use transform="translate(191.458453 0)scale(0.996264)" xlink:href="#CMSS17-101"/>
      <use transform="translate(233.097275 0)scale(0.996264)" xlink:href="#CMSS17-116"/>
     </g>
    </g>
   </g>
   <g id="matplotlib.axis_2">
    <g id="ytick_1">
     <g id="line2d_5">
      <path clip-path="url(#p51f8e02aed)" d="M 45.329852 268.137788 
L 402.449852 268.137788 
" style="fill:none;stroke:#ffffff;stroke-linecap:round;"/>
     </g>
     <g id="text_6">
      <!-- $0.8$ -->
      <defs>
       <path d="M 18.40625 4.796875 
C 18.40625 7.6875 16 9.6875 13.59375 9.6875 
C 10.703125 9.6875 8.703125 7.296875 8.703125 4.890625 
C 8.703125 2 11.09375 0 13.5 0 
C 16.40625 0 18.40625 2.390625 18.40625 4.796875 
z
" id="CMMI12-58"/>
       <path d="M 27.203125 35.765625 
C 33.5 38.96875 39.90625 43.796875 39.90625 51.53125 
C 39.90625 60.6875 31.09375 66 23 66 
C 13.90625 66 5.90625 59.375 5.90625 50.234375 
C 5.90625 47.71875 6.5 43.390625 10.40625 39.578125 
C 11.40625 38.578125 15.59375 35.5625 18.296875 33.65625 
C 13.796875 31.34375 3.296875 25.8125 3.296875 14.765625 
C 3.296875 4.40625 13.09375 -2 22.796875 -2 
C 33.5 -2 42.5 5.71875 42.5 15.96875 
C 42.5 25.109375 36.40625 29.328125 32.40625 32.046875 
z
M 14.09375 44.609375 
C 13.296875 45.109375 9.296875 48.21875 9.296875 52.9375 
C 9.296875 59.078125 15.59375 63.6875 22.796875 63.6875 
C 30.703125 63.6875 36.5 58.0625 36.5 51.53125 
C 36.5 42.1875 26.09375 36.859375 25.59375 36.859375 
C 25.5 36.859375 25.40625 36.859375 24.59375 37.46875 
z
M 32.5 24 
C 34 22.90625 38.796875 19.578125 38.796875 13.453125 
C 38.796875 6.015625 31.40625 0.390625 23 0.390625 
C 13.90625 0.390625 7 6.921875 7 14.859375 
C 7 22.796875 13.09375 29.4375 20 32.546875 
z
" id="CMR17-56"/>
      </defs>
      <g style="fill:#262626;" transform="translate(21.826776 271.942962)scale(0.11 -0.11)">
       <use transform="scale(0.996264)" xlink:href="#CMR17-48"/>
       <use transform="translate(45.690477 0)scale(0.996264)" xlink:href="#CMMI12-58"/>
       <use transform="translate(72.787654 0)scale(0.996264)" xlink:href="#CMR17-56"/>
      </g>
     </g>
    </g>
    <g id="ytick_2">
     <g id="line2d_6">
      <path clip-path="url(#p51f8e02aed)" d="M 45.329852 224.655748 
L 402.449852 224.655748 
" style="fill:none;stroke:#ffffff;stroke-linecap:round;"/>
     </g>
     <g id="text_7">
      <!-- $1.0$ -->
      <g style="fill:#262626;" transform="translate(21.826776 228.460921)scale(0.11 -0.11)">
       <use transform="scale(0.996264)" xlink:href="#CMR17-49"/>
       <use transform="translate(45.690477 0)scale(0.996264)" xlink:href="#CMMI12-58"/>
       <use transform="translate(72.787654 0)scale(0.996264)" xlink:href="#CMR17-48"/>
      </g>
     </g>
    </g>
    <g id="ytick_3">
     <g id="line2d_7">
      <path clip-path="url(#p51f8e02aed)" d="M 45.329852 181.173707 
L 402.449852 181.173707 
" style="fill:none;stroke:#ffffff;stroke-linecap:round;"/>
     </g>
     <g id="text_8">
      <!-- $1.2$ -->
      <g style="fill:#262626;" transform="translate(21.826776 184.97888)scale(0.11 -0.11)">
       <use transform="scale(0.996264)" xlink:href="#CMR17-49"/>
       <use transform="translate(45.690477 0)scale(0.996264)" xlink:href="#CMMI12-58"/>
       <use transform="translate(72.787654 0)scale(0.996264)" xlink:href="#CMR17-50"/>
      </g>
     </g>
    </g>
    <g id="ytick_4">
     <g id="line2d_8">
      <path clip-path="url(#p51f8e02aed)" d="M 45.329852 137.691666 
L 402.449852 137.691666 
" style="fill:none;stroke:#ffffff;stroke-linecap:round;"/>
     </g>
     <g id="text_9">
      <!-- $1.4$ -->
      <g style="fill:#262626;" transform="translate(21.826776 141.496839)scale(0.11 -0.11)">
       <use transform="scale(0.996264)" xlink:href="#CMR17-49"/>
       <use transform="translate(45.690477 0)scale(0.996264)" xlink:href="#CMMI12-58"/>
       <use transform="translate(72.787654 0)scale(0.996264)" xlink:href="#CMR17-52"/>
      </g>
     </g>
    </g>
    <g id="ytick_5">
     <g id="line2d_9">
      <path clip-path="url(#p51f8e02aed)" d="M 45.329852 94.209625 
L 402.449852 94.209625 
" style="fill:none;stroke:#ffffff;stroke-linecap:round;"/>
     </g>
     <g id="text_10">
      <!-- $1.6$ -->
      <defs>
       <path d="M 10.59375 34.34375 
C 10.59375 58 21.796875 63.6875 28.296875 63.6875 
C 30.40625 63.6875 35.5 63.265625 37.5 59.09375 
C 35.90625 59.09375 32.90625 59.09375 32.90625 55.59375 
C 32.90625 52.890625 35.09375 52 36.5 52 
C 37.40625 52 40.09375 52.390625 40.09375 55.796875 
C 40.09375 62.296875 35.09375 66 28.203125 66 
C 16.296875 66 3.796875 53.296875 3.796875 31.421875 
C 3.796875 4.015625 15.09375 -2 23.09375 -2 
C 32.796875 -2 42 6.734375 42 20.234375 
C 42 32.828125 33.90625 42 23.703125 42 
C 17.59375 42 13.09375 37.96875 10.59375 30.921875 
z
M 23.09375 0.390625 
C 10.796875 0.390625 10.796875 18.9375 10.796875 22.65625 
C 10.796875 29.90625 14.203125 40.390625 23.5 40.390625 
C 25.203125 40.390625 30.09375 40.390625 33.40625 33.4375 
C 35.203125 29.515625 35.203125 25.375 35.203125 20.34375 
C 35.203125 14.90625 35.203125 10.875 33.09375 6.84375 
C 30.90625 2.703125 27.703125 0.390625 23.09375 0.390625 
z
" id="CMR17-54"/>
      </defs>
      <g style="fill:#262626;" transform="translate(21.826776 98.014799)scale(0.11 -0.11)">
       <use transform="scale(0.996264)" xlink:href="#CMR17-49"/>
       <use transform="translate(45.690477 0)scale(0.996264)" xlink:href="#CMMI12-58"/>
       <use transform="translate(72.787654 0)scale(0.996264)" xlink:href="#CMR17-54"/>
      </g>
     </g>
    </g>
    <g id="ytick_6">
     <g id="line2d_10">
      <path clip-path="url(#p51f8e02aed)" d="M 45.329852 50.727585 
L 402.449852 50.727585 
" style="fill:none;stroke:#ffffff;stroke-linecap:round;"/>
     </g>
     <g id="text_11">
      <!-- $1.8$ -->
      <g style="fill:#262626;" transform="translate(21.826776 54.532758)scale(0.11 -0.11)">
       <use transform="scale(0.996264)" xlink:href="#CMR17-49"/>
       <use transform="translate(45.690477 0)scale(0.996264)" xlink:href="#CMMI12-58"/>
       <use transform="translate(72.787654 0)scale(0.996264)" xlink:href="#CMR17-56"/>
      </g>
     </g>
    </g>
    <g id="text_12">
     <!-- return -->
     <defs>
      <path d="M 14.90625 21.390625 
C 14.90625 30.84375 21.796875 37.171875 30.59375 37.375 
L 30.59375 44 
C 24.203125 43.890625 18.203125 40.6875 14.59375 35.46875 
L 14.59375 43.484375 
L 7.5 43.484375 
L 7.5 0 
L 14.90625 0 
z
" id="CMSS17-114"/>
      <path d="M 40.90625 29.34375 
C 40.90625 35.671875 39.40625 44 28.09375 44 
C 21.703125 44 17.5 40.6875 14.703125 37.28125 
L 14.703125 43.484375 
L 7.40625 43.484375 
L 7.40625 0 
L 15 0 
L 15 24.3125 
C 15 30.65625 17.40625 37.890625 24.203125 37.890625 
C 33 37.890625 33.296875 31.953125 33.296875 28.53125 
L 33.296875 0 
L 40.90625 0 
z
" id="CMSS17-110"/>
     </defs>
     <g style="fill:#262626;" transform="translate(15.50218 169.256358)rotate(-90)scale(0.12 -0.12)">
      <use transform="scale(0.996264)" xlink:href="#CMSS17-114"/>
      <use transform="translate(31.909773 0)scale(0.996264)" xlink:href="#CMSS17-101"/>
      <use transform="translate(73.548595 0)scale(0.996264)" xlink:href="#CMSS17-116"/>
      <use transform="translate(107.380161 0)scale(0.996264)" xlink:href="#CMSS17-117"/>
      <use transform="translate(155.585104 0)scale(0.996264)" xlink:href="#CMSS17-114"/>
      <use transform="translate(187.494877 0)scale(0.996264)" xlink:href="#CMSS17-110"/>
     </g>
    </g>
   </g>
   <g id="PolyCollection_1">
    <defs>
     <path d="M 61.562579 -130.582553 
L 61.562579 -95.952713 
L 86.501342 -112.842605 
L 114.736848 -150.416955 
L 142.530127 -141.88744 
L 169.780761 -152.163931 
L 196.615977 -164.479677 
L 223.855988 -160.257751 
L 250.915862 -163.054405 
L 277.998943 -168.457567 
L 305.046103 -162.40921 
L 332.103907 -163.698415 
L 359.159125 -180.661824 
L 386.217125 -178.374886 
L 386.217125 -221.668121 
L 386.217125 -221.668121 
L 359.159125 -218.579837 
L 332.103907 -200.731601 
L 305.046103 -201.49964 
L 277.998943 -205.235446 
L 250.915862 -200.353011 
L 223.855988 -197.935188 
L 196.615977 -201.260581 
L 169.780761 -191.703102 
L 142.530127 -181.859023 
L 114.736848 -189.090912 
L 86.501342 -151.798492 
L 61.562579 -130.582553 
z
" id="m93865760bc" style="stroke:#4c72b0;stroke-opacity:0.2;"/>
    </defs>
    <g clip-path="url(#p51f8e02aed)">
     <use style="fill:#4c72b0;fill-opacity:0.2;stroke:#4c72b0;stroke-opacity:0.2;" x="0" xlink:href="#m93865760bc" y="328.682197"/>
    </g>
   </g>
   <g id="PolyCollection_2">
    <defs>
     <path d="M 61.562579 -120.205287 
L 61.562579 -84.22806 
L 86.501342 -74.111079 
L 114.736848 -78.334748 
L 142.530127 -94.401338 
L 169.780761 -111.645218 
L 196.615977 -115.82632 
L 223.855988 -129.560537 
L 250.915862 -139.176552 
L 277.998943 -161.450099 
L 305.046103 -182.672269 
L 332.103907 -208.342631 
L 359.159125 -215.997347 
L 386.217125 -252.571753 
L 386.217125 -295.084017 
L 386.217125 -295.084017 
L 359.159125 -255.771717 
L 332.103907 -245.260625 
L 305.046103 -221.089093 
L 277.998943 -200.014031 
L 250.915862 -179.653544 
L 223.855988 -165.904091 
L 196.615977 -152.87234 
L 169.780761 -147.849941 
L 142.530127 -130.549028 
L 114.736848 -111.508707 
L 86.501342 -109.117562 
L 61.562579 -120.205287 
z
" id="m36a0dc40e0" style="stroke:#dd8452;stroke-opacity:0.2;"/>
    </defs>
    <g clip-path="url(#p51f8e02aed)">
     <use style="fill:#dd8452;fill-opacity:0.2;stroke:#dd8452;stroke-opacity:0.2;" x="0" xlink:href="#m36a0dc40e0" y="328.682197"/>
    </g>
   </g>
   <g id="PolyCollection_3">
    <defs>
     <path d="M 61.562579 -128.428555 
L 61.562579 -97.394448 
L 86.501342 -58.504094 
L 114.736848 -90.040318 
L 142.530127 -105.480066 
L 169.780761 -115.353984 
L 196.615977 -127.916903 
L 223.855988 -135.428114 
L 250.915862 -161.966492 
L 277.998943 -175.925691 
L 305.046103 -201.706045 
L 332.103907 -234.504088 
L 359.159125 -230.579301 
L 386.217125 -249.683323 
L 386.217125 -288.534306 
L 386.217125 -288.534306 
L 359.159125 -272.180715 
L 332.103907 -273.630213 
L 305.046103 -241.619068 
L 277.998943 -219.214038 
L 250.915862 -199.206007 
L 223.855988 -175.000659 
L 196.615977 -166.362787 
L 169.780761 -149.854246 
L 142.530127 -140.387831 
L 114.736848 -127.693077 
L 86.501342 -89.694077 
L 61.562579 -128.428555 
z
" id="m45d1856f1f" style="stroke:#55a868;stroke-opacity:0.2;"/>
    </defs>
    <g clip-path="url(#p51f8e02aed)">
     <use style="fill:#55a868;fill-opacity:0.2;stroke:#55a868;stroke-opacity:0.2;" x="0" xlink:href="#m45d1856f1f" y="328.682197"/>
    </g>
   </g>
   <g id="PolyCollection_4">
    <defs>
     <path d="M 61.562579 -120.611557 
L 61.562579 -84.792199 
L 86.501342 -53.164017 
L 114.736848 -66.365599 
L 142.530127 -66.376682 
L 169.780761 -62.95138 
L 196.615977 -68.945778 
L 223.855988 -63.999328 
L 250.915862 -68.910669 
L 277.998943 -72.3487 
L 305.046103 -103.497748 
L 332.103907 -125.801733 
L 359.159125 -143.721013 
L 386.217125 -168.116222 
L 386.217125 -204.4361 
L 386.217125 -204.4361 
L 359.159125 -180.934169 
L 332.103907 -163.671027 
L 305.046103 -137.368683 
L 277.998943 -106.290537 
L 250.915862 -104.108532 
L 223.855988 -97.242312 
L 196.615977 -102.533957 
L 169.780761 -95.02297 
L 142.530127 -100.345123 
L 114.736848 -98.838275 
L 86.501342 -85.354748 
L 61.562579 -120.611557 
z
" id="m5b9abbeff9" style="stroke:#c44e52;stroke-opacity:0.2;"/>
    </defs>
    <g clip-path="url(#p51f8e02aed)">
     <use style="fill:#c44e52;fill-opacity:0.2;stroke:#c44e52;stroke-opacity:0.2;" x="0" xlink:href="#m5b9abbeff9" y="328.682197"/>
    </g>
   </g>
   <g id="PolyCollection_5">
    <defs>
     <path d="M 61.562579 -110.18287 
L 61.562579 -77.396888 
L 86.501342 -68.172342 
L 114.736848 -59.131163 
L 142.530127 -62.0585 
L 169.780761 -67.223991 
L 196.615977 -80.28897 
L 223.855988 -75.324501 
L 250.915862 -64.893669 
L 277.998943 -65.246392 
L 305.046103 -74.253573 
L 332.103907 -65.483882 
L 359.159125 -66.747468 
L 386.217125 -59.482694 
L 386.217125 -88.590672 
L 386.217125 -88.590672 
L 359.159125 -100.342478 
L 332.103907 -98.405653 
L 305.046103 -108.914423 
L 277.998943 -99.212714 
L 250.915862 -98.05889 
L 223.855988 -109.945053 
L 196.615977 -112.327346 
L 169.780761 -100.040129 
L 142.530127 -93.580794 
L 114.736848 -90.991232 
L 86.501342 -102.775621 
L 61.562579 -110.18287 
z
" id="mdfafa5f6cc" style="stroke:#8172b3;stroke-opacity:0.2;"/>
    </defs>
    <g clip-path="url(#p51f8e02aed)">
     <use style="fill:#8172b3;fill-opacity:0.2;stroke:#8172b3;stroke-opacity:0.2;" x="0" xlink:href="#mdfafa5f6cc" y="328.682197"/>
    </g>
   </g>
   <g id="line2d_11">
    <path clip-path="url(#p51f8e02aed)" d="M 61.562579 215.905191 
L 86.501342 196.317424 
L 114.736848 159.408135 
L 142.530127 167.989354 
L 169.780761 156.800748 
L 196.615977 146.478687 
L 223.855988 149.824188 
L 250.915862 146.872266 
L 277.998943 141.862173 
L 305.046103 146.846059 
L 332.103907 145.956326 
L 359.159125 129.512492 
L 386.217125 129.525509 
" style="fill:none;stroke:#4c72b0;stroke-linecap:round;stroke-width:1.5;"/>
   </g>
   <g id="line2d_12">
    <path clip-path="url(#p51f8e02aed)" d="M 61.562579 225.898752 
L 86.501342 236.585892 
L 114.736848 234.056383 
L 142.530127 216.341459 
L 169.780761 199.133814 
L 196.615977 194.497318 
L 223.855988 180.121706 
L 250.915862 169.419222 
L 277.998943 149.117127 
L 305.046103 126.5313 
L 332.103907 101.672993 
L 359.159125 92.940895 
L 386.217125 54.245279 
" style="fill:none;stroke:#dd8452;stroke-linecap:round;stroke-width:1.5;"/>
   </g>
   <g id="line2d_13">
    <path clip-path="url(#p51f8e02aed)" d="M 61.562579 216.278937 
L 86.501342 254.174317 
L 114.736848 219.720592 
L 142.530127 205.580734 
L 169.780761 195.983042 
L 196.615977 181.566286 
L 223.855988 173.576945 
L 250.915862 147.88737 
L 277.998943 131.269184 
L 305.046103 106.267493 
L 332.103907 74.290102 
L 359.159125 78.109119 
L 386.217125 59.385659 
" style="fill:none;stroke:#55a868;stroke-linecap:round;stroke-width:1.5;"/>
   </g>
   <g id="line2d_14">
    <path clip-path="url(#p51f8e02aed)" d="M 61.562579 225.660518 
L 86.501342 259.305356 
L 114.736848 246.512459 
L 142.530127 246.021693 
L 169.780761 250.488765 
L 196.615977 243.36228 
L 223.855988 248.734284 
L 250.915862 242.064165 
L 277.998943 240.011952 
L 305.046103 207.954201 
L 332.103907 183.432365 
L 359.159125 166.183704 
L 386.217125 142.549315 
" style="fill:none;stroke:#c44e52;stroke-linecap:round;stroke-width:1.5;"/>
   </g>
   <g id="line2d_15">
    <path clip-path="url(#p51f8e02aed)" d="M 61.562579 234.507533 
L 86.501342 243.715946 
L 114.736848 253.282892 
L 142.530127 250.820664 
L 169.780761 244.546967 
L 196.615977 232.527817 
L 223.855988 235.704659 
L 250.915862 247.362629 
L 277.998943 247.341427 
L 305.046103 237.730529 
L 332.103907 247.228309 
L 359.159125 246.282537 
L 386.217125 254.892384 
" style="fill:none;stroke:#8172b3;stroke-linecap:round;stroke-width:1.5;"/>
   </g>
   <g id="line2d_16"/>
   <g id="line2d_17"/>
   <g id="line2d_18"/>
   <g id="line2d_19"/>
   <g id="line2d_20"/>
   <g id="line2d_21"/>
   <g id="patch_3">
    <path d="M 45.329852 287.61418 
L 45.329852 21.50218 
" style="fill:none;stroke:#ffffff;stroke-linecap:square;stroke-linejoin:miter;stroke-width:1.25;"/>
   </g>
   <g id="patch_4">
    <path d="M 402.449852 287.61418 
L 402.449852 21.50218 
" style="fill:none;stroke:#ffffff;stroke-linecap:square;stroke-linejoin:miter;stroke-width:1.25;"/>
   </g>
   <g id="patch_5">
    <path d="M 45.329852 287.61418 
L 402.449852 287.61418 
" style="fill:none;stroke:#ffffff;stroke-linecap:square;stroke-linejoin:miter;stroke-width:1.25;"/>
   </g>
   <g id="patch_6">
    <path d="M 45.329852 21.50218 
L 402.449852 21.50218 
" style="fill:none;stroke:#ffffff;stroke-linecap:square;stroke-linejoin:miter;stroke-width:1.25;"/>
   </g>
   <g id="text_13">
    <!-- Stochastic Gridworld -->
    <defs>
     <path d="M 43.703125 66.09375 
C 39.296875 68.6875 34.5 71 26.40625 71 
C 13.5 71 5.203125 61.46875 5.203125 51.703125 
C 5.203125 47.875 6.296875 43.546875 10.203125 39.125 
C 14.09375 34.6875 18.5 33.484375 24.09375 32.078125 
C 26.40625 31.46875 30.296875 30.359375 31 30.0625 
C 36.59375 27.84375 39.296875 22.71875 39.296875 17.875 
C 39.296875 11.53125 34.40625 4.796875 25.703125 4.796875 
C 22.703125 4.796875 13.90625 5.296875 5.59375 12.953125 
L 4.203125 5 
C 12.40625 -1 21.296875 -2 25.796875 -2 
C 38.09375 -2 46.90625 7.71875 46.90625 18.78125 
C 46.90625 22.8125 45.703125 27.953125 41.5 32.6875 
C 37.40625 37.203125 33.796875 38.21875 25.59375 40.4375 
C 20.90625 41.640625 17.90625 42.453125 15.40625 45.5625 
C 13.703125 47.78125 12.796875 49.890625 12.796875 52.609375 
C 12.796875 58.25 17.59375 64.390625 26.40625 64.390625 
C 30.796875 64.390625 36.5 63.484375 42.296875 58.046875 
z
" id="CMSS17-83"/>
     <path d="M 44.203125 21.1875 
C 44.203125 33.984375 34.703125 44 23.5 44 
C 12 44 2.703125 33.6875 2.703125 21.1875 
C 2.703125 8.5 12.296875 -1 23.40625 -1 
C 34.796875 -1 44.203125 8.796875 44.203125 21.1875 
z
M 23.5 5.296875 
C 16.40625 5.296875 10.296875 11.09375 10.296875 21.984375 
C 10.296875 33.59375 17.40625 37.890625 23.40625 37.890625 
C 29.90625 37.890625 36.59375 33.1875 36.59375 21.984375 
C 36.59375 10.6875 30.09375 5.296875 23.5 5.296875 
z
" id="CMSS17-111"/>
     <path d="M 38.5 39.6875 
C 38.5 40.390625 33.90625 42.390625 32.703125 42.796875 
C 29.40625 44 25.203125 44 24.09375 44 
C 11.09375 44 3.296875 32.6875 3.296875 21.296875 
C 3.296875 9.296875 12 -1 23.703125 -1 
C 30.40625 -1 35.203125 1.1875 39.09375 3.796875 
L 38.5 10.390625 
C 34.203125 7.09375 29.203125 5.296875 23.796875 5.296875 
C 16 5.296875 10.90625 12.09375 10.90625 21.390625 
C 10.90625 28.59375 14.203125 37.6875 24.203125 37.6875 
C 29.703125 37.6875 32.796875 36.59375 37.40625 33.484375 
z
" id="CMSS17-99"/>
     <path d="M 40.90625 29.34375 
C 40.90625 35.671875 39.40625 44 28.09375 44 
C 21.796875 44 17.703125 40.890625 14.796875 37.484375 
L 14.796875 69 
L 7.40625 69 
L 7.40625 0 
L 15 0 
L 15 24.3125 
C 15 30.65625 17.40625 37.890625 24.203125 37.890625 
C 33 37.890625 33.296875 31.953125 33.296875 28.53125 
L 33.296875 0 
L 40.90625 0 
z
" id="CMSS17-104"/>
     <path d="M 37.59375 27.953125 
C 37.59375 37.484375 30.90625 44 21.90625 44 
C 17.5 44 12.703125 43.1875 7.203125 39.984375 
L 7.796875 33.328125 
C 10.296875 35.15625 14.59375 38.09375 21.796875 38.09375 
C 26.90625 38.09375 30 34.140625 30 27.84375 
L 30 24 
C 14 23.5 4 18.890625 4 11.109375 
C 4 7.0625 6.5 -1 14.796875 -1 
C 16.296875 -1 24.40625 -0.8125 30.203125 3.5 
L 30.203125 -0.203125 
L 37.59375 -0.203125 
z
M 30 12.875 
C 30 11.109375 30 8.734375 27 6.96875 
C 24.40625 5.296875 21.09375 5.09375 19.703125 5.09375 
C 14.703125 5.09375 11.296875 7.859375 11.296875 11.296875 
C 11.296875 18.203125 26.90625 18.890625 30 19 
z
" id="CMSS17-97"/>
     <path d="M 32.203125 40.984375 
C 26.296875 43.796875 21.703125 44 18.703125 44 
C 11.59375 44 3.09375 41.484375 3.09375 31.390625 
C 3.09375 21.296875 14.09375 19.09375 17.09375 18.484375 
C 21.703125 17.59375 26.796875 16.59375 26.796875 11.59375 
C 26.796875 5.296875 19.59375 5.296875 18.296875 5.296875 
C 14.296875 5.296875 8.796875 6.390625 3.796875 9.984375 
L 2.59375 3.296875 
C 8.296875 0 13.796875 -1 18.40625 -1 
C 30.703125 -1 33.796875 6.5 33.796875 12.1875 
C 33.796875 17.09375 31 20.390625 29.09375 21.890625 
C 25.796875 24.484375 24.59375 24.796875 16.40625 26.484375 
C 15 26.6875 10.09375 27.796875 10.09375 32.296875 
C 10.09375 37.984375 16.40625 37.984375 17.796875 37.984375 
C 24.296875 37.984375 28.296875 35.984375 31 34.484375 
z
" id="CMSS17-115"/>
     <path d="M 15.296875 66 
L 6.90625 66 
L 6.90625 57.59375 
L 15.296875 57.59375 
z
M 14.796875 43 
L 7.40625 43 
L 7.40625 0 
L 14.796875 0 
z
" id="CMSS17-105"/>
     <path d="M 56.40625 29.1875 
L 36.5 29.1875 
L 36.5 23 
L 48.796875 23 
L 48.796875 7.390625 
C 44.90625 6.296875 40.90625 5.5 36.90625 5.5 
C 22.90625 5.5 14.59375 20.484375 14.59375 34.6875 
C 14.59375 48.796875 23.296875 63.59375 36.90625 63.59375 
C 44.59375 63.59375 48.90625 61.1875 54.203125 57.1875 
L 55.5 65.1875 
C 48.90625 68.59375 44.796875 70 37.296875 70 
C 17.90625 70 6.203125 52.390625 6.203125 34.390625 
C 6.203125 17.1875 18 -1 36.703125 -1 
C 43.703125 -1 50.203125 0.796875 56.40625 3.890625 
z
" id="CMSS17-71"/>
     <path d="M 62.703125 43 
L 55.09375 43 
L 49.796875 25 
C 48.703125 21.1875 45.59375 10.6875 45.203125 5.796875 
L 45.09375 5.796875 
C 44.90625 8.796875 43.203125 16 40.40625 25.5 
L 35.296875 43 
L 28.40625 43 
L 23.40625 25.890625 
C 20.90625 17.1875 19 9.796875 18.796875 5.796875 
L 18.703125 5.796875 
C 18.296875 11.6875 14.203125 25.5 13.59375 27.6875 
L 9.09375 43 
L 1.296875 43 
L 14.296875 0 
L 21.90625 0 
C 27.09375 17.1875 31.09375 30.5 31.40625 37.1875 
C 31.59375 33.890625 33.296875 26.796875 34.296875 23.296875 
L 40.90625 0 
L 49.703125 0 
z
" id="CMSS17-119"/>
     <path d="M 14.796875 69 
L 7.40625 69 
L 7.40625 0 
L 14.796875 0 
z
" id="CMSS17-108"/>
    </defs>
    <g style="fill:#262626;" transform="translate(173.525153 15.50218)scale(0.12 -0.12)">
     <use transform="scale(0.996264)" xlink:href="#CMSS17-83"/>
     <use transform="translate(52.048516 0)scale(0.996264)" xlink:href="#CMSS17-116"/>
     <use transform="translate(85.880083 0)scale(0.996264)" xlink:href="#CMSS17-111"/>
     <use transform="translate(135.326145 0)scale(0.996264)" xlink:href="#CMSS17-99"/>
     <use transform="translate(176.964967 0)scale(0.996264)" xlink:href="#CMSS17-104"/>
     <use transform="translate(225.16991 0)scale(0.996264)" xlink:href="#CMSS17-97"/>
     <use transform="translate(270.091831 0)scale(0.996264)" xlink:href="#CMSS17-115"/>
     <use transform="translate(306.005373 0)scale(0.996264)" xlink:href="#CMSS17-116"/>
     <use transform="translate(339.83694 0)scale(0.996264)" xlink:href="#CMSS17-105"/>
     <use transform="translate(362.017663 0)scale(0.996264)" xlink:href="#CMSS17-99"/>
     <use transform="translate(434.885597 0)scale(0.996264)" xlink:href="#CMSS17-71"/>
     <use transform="translate(497.343823 0)scale(0.996264)" xlink:href="#CMSS17-114"/>
     <use transform="translate(529.253596 0)scale(0.996264)" xlink:href="#CMSS17-105"/>
     <use transform="translate(551.434319 0)scale(0.996264)" xlink:href="#CMSS17-100"/>
     <use transform="translate(599.639262 0)scale(0.996264)" xlink:href="#CMSS17-119"/>
     <use transform="translate(660.856353 0)scale(0.996264)" xlink:href="#CMSS17-111"/>
     <use transform="translate(705.097522 0)scale(0.996264)" xlink:href="#CMSS17-114"/>
     <use transform="translate(737.007295 0)scale(0.996264)" xlink:href="#CMSS17-108"/>
     <use transform="translate(759.188018 0)scale(0.996264)" xlink:href="#CMSS17-100"/>
    </g>
   </g>
   <g id="legend_1">
    <g id="patch_7">
     <path d="M 53.029852 123.415557 
L 142.506539 123.415557 
Q 144.706539 123.415557 144.706539 121.215557 
L 144.706539 29.20218 
Q 144.706539 27.00218 142.506539 27.00218 
L 53.029852 27.00218 
Q 50.829852 27.00218 50.829852 29.20218 
L 50.829852 121.215557 
Q 50.829852 123.415557 53.029852 123.415557 
z
" style="fill:#eaeaf2;opacity:0.8;stroke:#cccccc;stroke-linejoin:miter;"/>
    </g>
    <g id="line2d_22">
     <path d="M 55.229852 35.25218 
L 77.229852 35.25218 
" style="fill:none;"/>
    </g>
    <g id="line2d_23"/>
    <g id="text_14">
     <!-- agent -->
     <g style="fill:#262626;" transform="translate(86.029852 39.10218)scale(0.11 -0.11)">
      <use transform="scale(0.996264)" xlink:href="#CMSS17-97"/>
      <use transform="translate(44.921921 0)scale(0.996264)" xlink:href="#CMSS17-103"/>
      <use transform="translate(91.765544 0)scale(0.996264)" xlink:href="#CMSS17-101"/>
      <use transform="translate(133.404366 0)scale(0.996264)" xlink:href="#CMSS17-110"/>
      <use transform="translate(181.609309 0)scale(0.996264)" xlink:href="#CMSS17-116"/>
     </g>
    </g>
    <g id="line2d_24">
     <path d="M 55.229852 50.583074 
L 77.229852 50.583074 
" style="fill:none;stroke:#4c72b0;stroke-linecap:round;stroke-width:1.5;"/>
    </g>
    <g id="line2d_25"/>
    <g id="text_15">
     <!-- \texttt{OPD} -->
     <defs>
      <path d="M 45.90625 30.4375 
C 45.90625 59.296875 43.796875 62 25.703125 62 
C 7.59375 62 5.5 59.296875 5.5 30.546875 
C 5.5 1.6875 7.59375 -1 25.703125 -1 
C 43.796875 -1 45.90625 1.6875 45.90625 30.4375 
z
M 25.703125 4.796875 
C 16.59375 4.796875 14.40625 7.171875 13.296875 11.71875 
C 12 16.78125 12 25.6875 12 31.328125 
C 12 37.671875 12 44.703125 13.09375 49.453125 
C 14.5 54.90625 17.5 56.1875 25.703125 56.1875 
C 33.59375 56.1875 36.796875 55 38.203125 49.75 
C 39.40625 45.09375 39.40625 37.375 39.40625 31.328125 
C 39.40625 25.1875 39.40625 17.5625 38.296875 12.21875 
C 37.203125 7.171875 35 4.796875 25.703125 4.796875 
z
" id="CMTT12-79"/>
      <path d="M 16.09375 25 
L 28.5 25 
C 40.09375 25 47.09375 34.15625 47.09375 42.9375 
C 47.09375 52.125 39.90625 61 28.5 61 
L 6.90625 61 
C 5.5 61 2.796875 61 2.796875 58.09375 
C 2.796875 55.1875 5.5 55.1875 6.90625 55.1875 
L 9.59375 55.1875 
L 9.59375 5.796875 
L 6.90625 5.796875 
C 5.5 5.796875 2.796875 5.796875 2.796875 2.890625 
C 2.796875 0 5.5 0 6.90625 0 
L 18.796875 0 
C 20.203125 0 22.90625 0 22.90625 2.890625 
C 22.90625 5.796875 20.203125 5.796875 18.796875 5.796875 
L 16.09375 5.796875 
z
M 16.09375 55.1875 
L 26.703125 55.1875 
C 36.296875 55.1875 40.59375 48.28125 40.59375 43.046875 
C 40.59375 37.40625 36.09375 30.796875 26.703125 30.796875 
L 16.09375 30.796875 
z
" id="CMTT12-80"/>
      <path d="M 6.203125 61 
C 4.796875 61 2.203125 61 2.203125 58.09375 
C 2.203125 55.1875 4.796875 55.1875 6.203125 55.1875 
L 8.203125 55.1875 
L 8.203125 5.796875 
L 6.203125 5.796875 
C 4.796875 5.796875 2.203125 5.796875 2.203125 2.890625 
C 2.203125 0 4.796875 0 6.203125 0 
L 26.09375 0 
C 39 0 47.59375 14.171875 47.59375 29.9375 
C 47.59375 45.90625 39.296875 61 26 61 
z
M 14.703125 5.796875 
L 14.703125 55.1875 
L 24.203125 55.1875 
C 35.796875 55.1875 41.09375 41.421875 41.09375 30.046875 
C 41.09375 17.96875 35.203125 5.796875 24.296875 5.796875 
z
" id="CMTT12-68"/>
     </defs>
     <g style="fill:#262626;" transform="translate(86.029852 54.433074)scale(0.11 -0.11)">
      <use transform="scale(0.996264)" xlink:href="#CMTT12-79"/>
      <use transform="translate(51.266111 0)scale(0.996264)" xlink:href="#CMTT12-80"/>
      <use transform="translate(102.532222 0)scale(0.996264)" xlink:href="#CMTT12-68"/>
     </g>
    </g>
    <g id="line2d_26">
     <path d="M 55.229852 65.913969 
L 77.229852 65.913969 
" style="fill:none;stroke:#dd8452;stroke-linecap:round;stroke-width:1.5;"/>
    </g>
    <g id="line2d_27"/>
    <g id="text_16">
     <!-- \texttt{KL-OLOP} -->
     <defs>
      <path d="M 27.09375 35.734375 
L 42.40625 55.1875 
C 45.296875 55.1875 47.59375 55.1875 47.59375 58.09375 
C 47.59375 61 45 61 43.59375 61 
L 35.203125 61 
C 33.796875 61 31.203125 61 31.203125 58.09375 
C 31.203125 55.1875 33.796875 55.1875 35.203125 55.1875 
L 14.203125 28.453125 
L 14.203125 55.1875 
L 16.203125 55.1875 
C 17.59375 55.1875 20.203125 55.1875 20.203125 58.09375 
C 20.203125 61 17.59375 61 16.203125 61 
L 6.59375 61 
C 5.203125 61 2.59375 61 2.59375 58.09375 
C 2.59375 55.1875 5.203125 55.1875 6.59375 55.1875 
L 8.59375 55.1875 
L 8.59375 5.796875 
L 6.59375 5.796875 
C 5.203125 5.796875 2.59375 5.796875 2.59375 2.890625 
C 2.59375 0 5.203125 0 6.59375 0 
L 16.203125 0 
C 17.59375 0 20.203125 0 20.203125 2.890625 
C 20.203125 5.796875 17.59375 5.796875 16.203125 5.796875 
L 14.203125 5.796875 
L 14.203125 19.359375 
L 23.296875 30.9375 
L 37.203125 5.796875 
C 35.90625 5.796875 33.296875 5.796875 33.296875 2.890625 
C 33.296875 0 35.90625 0 37.296875 0 
L 44.5 0 
C 45.90625 0 48.5 0 48.5 2.890625 
C 48.5 5.796875 46.09375 5.796875 43.59375 5.796875 
z
" id="CMTT12-75"/>
      <path d="M 17.296875 55.1875 
L 22.5 55.1875 
C 23.90625 55.1875 26.5 55.1875 26.5 58.09375 
C 26.5 61 23.90625 61 22.5 61 
L 7.5 61 
C 6.09375 61 3.40625 61 3.40625 58.09375 
C 3.40625 55.1875 6.09375 55.1875 7.5 55.1875 
L 10.796875 55.1875 
L 10.796875 5.796875 
L 7.5 5.796875 
C 6.09375 5.796875 3.40625 5.796875 3.40625 2.890625 
C 3.40625 0 6.09375 0 7.5 0 
L 43.90625 0 
C 47.203125 0 47.90625 0.890625 47.90625 4.09375 
L 47.90625 12.28125 
C 47.90625 13.96875 47.90625 16.265625 44.703125 16.265625 
C 41.40625 16.265625 41.40625 14.078125 41.40625 12.28125 
L 41.40625 5.796875 
L 17.296875 5.796875 
z
" id="CMTT12-76"/>
      <path d="M 41.40625 27.484375 
C 42.703125 27.484375 45.90625 27.484375 45.90625 30.6875 
C 45.90625 34 42.796875 34 41.40625 34 
L 10 34 
C 8.703125 34 5.5 34 5.5 30.796875 
C 5.5 27.484375 8.59375 27.484375 10 27.484375 
z
" id="CMTT12-45"/>
     </defs>
     <g style="fill:#262626;" transform="translate(86.029852 69.763969)scale(0.11 -0.11)">
      <use transform="scale(0.996264)" xlink:href="#CMTT12-75"/>
      <use transform="translate(51.266111 0)scale(0.996264)" xlink:href="#CMTT12-76"/>
      <use transform="translate(102.532222 0)scale(0.996264)" xlink:href="#CMTT12-45"/>
      <use transform="translate(153.798333 0)scale(0.996264)" xlink:href="#CMTT12-79"/>
      <use transform="translate(205.064443 0)scale(0.996264)" xlink:href="#CMTT12-76"/>
      <use transform="translate(256.330554 0)scale(0.996264)" xlink:href="#CMTT12-79"/>
      <use transform="translate(307.596665 0)scale(0.996264)" xlink:href="#CMTT12-80"/>
     </g>
    </g>
    <g id="line2d_28">
     <path d="M 55.229852 81.764042 
L 77.229852 81.764042 
" style="fill:none;stroke:#55a868;stroke-linecap:round;stroke-width:1.5;"/>
    </g>
    <g id="line2d_29"/>
    <g id="text_17">
     <!-- \texttt{KL-OLOP}(1) -->
     <defs>
      <path d="M 25.203125 75 
C 19.796875 69.484375 7.40625 56.671875 7.40625 25.046875 
C 7.40625 -6.6875 19.796875 -19.40625 25.203125 -25 
L 31.296875 -25 
C 19 -12.203125 15 5.71875 15 24.9375 
C 15 44.0625 18.796875 62.078125 31.296875 75 
z
" id="CMSS17-40"/>
      <path d="M 28.40625 67 
L 26.5 67 
C 21.09375 61.703125 14.796875 60.96875 8.40625 60.796875 
L 8.40625 55 
C 11.296875 55.09375 16 55.296875 20.703125 57.390625 
L 20.703125 5.796875 
L 8.90625 5.796875 
L 8.90625 0 
L 40.203125 0 
L 40.203125 5.796875 
L 28.40625 5.796875 
z
" id="CMSS17-49"/>
      <path d="M 11.296875 -25 
C 16.703125 -19.5 29.09375 -6.6875 29.09375 24.9375 
C 29.09375 56.671875 16.703125 69.375 11.296875 75 
L 5.203125 75 
C 17.5 62.171875 21.5 44.265625 21.5 25.046875 
C 21.5 5.921875 17.703125 -12.09375 5.203125 -25 
z
" id="CMSS17-41"/>
     </defs>
     <g style="fill:#262626;" transform="translate(86.029852 85.614042)scale(0.11 -0.11)">
      <use transform="scale(0.996264)" xlink:href="#CMTT12-75"/>
      <use transform="translate(51.266111 0)scale(0.996264)" xlink:href="#CMTT12-76"/>
      <use transform="translate(102.532222 0)scale(0.996264)" xlink:href="#CMTT12-45"/>
      <use transform="translate(153.798333 0)scale(0.996264)" xlink:href="#CMTT12-79"/>
      <use transform="translate(205.064443 0)scale(0.996264)" xlink:href="#CMTT12-76"/>
      <use transform="translate(256.330554 0)scale(0.996264)" xlink:href="#CMTT12-79"/>
      <use transform="translate(307.596665 0)scale(0.996264)" xlink:href="#CMTT12-80"/>
      <use transform="translate(358.862776 0)scale(0.996264)" xlink:href="#CMSS17-40"/>
      <use transform="translate(395.29669 0)scale(0.996264)" xlink:href="#CMSS17-49"/>
      <use transform="translate(442.140314 0)scale(0.996264)" xlink:href="#CMSS17-41"/>
     </g>
    </g>
    <g id="line2d_30">
     <path d="M 55.229852 97.703768 
L 77.229852 97.703768 
" style="fill:none;stroke:#c44e52;stroke-linecap:round;stroke-width:1.5;"/>
    </g>
    <g id="line2d_31"/>
    <g id="text_18">
     <!-- \texttt{OLOP} -->
     <g style="fill:#262626;" transform="translate(86.029852 101.553768)scale(0.11 -0.11)">
      <use transform="scale(0.996264)" xlink:href="#CMTT12-79"/>
      <use transform="translate(51.266111 0)scale(0.996264)" xlink:href="#CMTT12-76"/>
      <use transform="translate(102.532222 0)scale(0.996264)" xlink:href="#CMTT12-79"/>
      <use transform="translate(153.798333 0)scale(0.996264)" xlink:href="#CMTT12-80"/>
     </g>
    </g>
    <g id="line2d_32">
     <path d="M 55.229852 113.034662 
L 77.229852 113.034662 
" style="fill:none;stroke:#8172b3;stroke-linecap:round;stroke-width:1.5;"/>
    </g>
    <g id="line2d_33"/>
    <g id="text_19">
     <!-- \texttt{Random} -->
     <defs>
      <path d="M 34 30.6875 
C 39.5 33.890625 42.5 39.1875 42.5 44.484375 
C 42.5 52.640625 35.203125 61 23.40625 61 
L 6.40625 61 
C 4.90625 61 2.40625 61 2.40625 58.09375 
C 2.40625 55.1875 5 55.1875 6.40625 55.1875 
L 8.59375 55.1875 
L 8.59375 5.796875 
L 6.40625 5.796875 
C 5 5.796875 2.40625 5.796875 2.40625 2.890625 
C 2.40625 0 4.90625 0 6.40625 0 
L 17.296875 0 
C 18.703125 0 21.40625 0 21.40625 2.890625 
C 21.40625 5.796875 18.703125 5.796875 17.296875 5.796875 
L 15.09375 5.796875 
L 15.09375 28 
L 23 28 
C 24.796875 28 27.90625 28 31.09375 25.1875 
C 33.40625 23.078125 33.40625 20.765625 33.40625 16.4375 
C 33.40625 9.40625 33.40625 6.5 35.296875 3.09375 
C 36.90625 0.5 39.5 -1 42.59375 -1 
C 49.203125 -1 51.203125 5.890625 51.203125 9.515625 
C 51.203125 11.515625 50.296875 12.828125 47.90625 12.828125 
C 44.90625 12.828125 44.703125 10.421875 44.703125 9.515625 
C 44.703125 8.8125 44.40625 4.796875 42.59375 4.796875 
C 39.90625 4.796875 39.90625 9.21875 39.90625 14.9375 
C 39.90625 21.765625 39.90625 22.375 38.90625 24.875 
C 37.59375 27.78125 35.203125 29.796875 34 30.6875 
z
M 22.40625 33.796875 
L 15.09375 33.796875 
L 15.09375 55.1875 
L 22.40625 55.1875 
C 31.59375 55.1875 36 49.296875 36 44.484375 
C 36 39.6875 31.59375 33.796875 22.40625 33.796875 
z
" id="CMTT12-82"/>
      <path d="M 41.40625 28.578125 
C 41.40625 36.03125 35.703125 44 22.203125 44 
C 18 44 8.296875 44 8.296875 37.109375 
C 8.296875 34.46875 10.203125 33 12.40625 33 
C 13 33 16.296875 33.1875 16.40625 37.3125 
C 16.40625 37.796875 16.5 37.890625 18.59375 38.09375 
C 19.796875 38.1875 21.09375 38.1875 22.296875 38.1875 
C 24.59375 38.1875 28 38.1875 31.296875 35.734375 
C 34.90625 33 34.90625 30.25 34.90625 27.390625 
C 29 27.1875 23.203125 26.796875 17 24.796875 
C 12 23.09375 5.59375 19.40625 5.59375 12.359375 
C 5.59375 5 11.90625 -1 21.203125 -1 
C 24.40625 -1 30.59375 -0.5 35.796875 3.09375 
C 37.796875 -0.203125 42.796875 -0.40625 46.59375 -0.40625 
C 49 -0.40625 51.40625 -0.40625 51.40625 2.5 
C 51.40625 5.421875 48.796875 5.421875 47.40625 5.421875 
C 44.796875 5.421875 42.796875 5.625 41.40625 6.25 
z
M 34.90625 13.078125 
C 34.90625 10.703125 34.90625 8.515625 30.796875 6.546875 
C 27.296875 4.796875 22.59375 4.796875 22.296875 4.796875 
C 16.40625 4.796875 12.09375 8.109375 12.09375 12.359375 
C 12.09375 18.46875 22.796875 22 34.90625 22 
z
" id="CMTT12-97"/>
      <path d="M 41.796875 29.515625 
C 41.796875 39.390625 37.203125 44 29 44 
C 22.203125 44 17.796875 40.1875 16.09375 38.296875 
C 16.09375 41.984375 16.09375 43.390625 12.09375 43.390625 
L 5.5 43.390625 
C 4.09375 43.390625 1.5 43.390625 1.5 40.484375 
C 1.5 37.59375 4.09375 37.59375 5.5 37.59375 
L 9.59375 37.59375 
L 9.59375 5.796875 
L 5.5 5.796875 
C 4.09375 5.796875 1.5 5.796875 1.5 2.890625 
C 1.5 0 4.09375 0 5.5 0 
L 20.203125 0 
C 21.59375 0 24.203125 0 24.203125 2.890625 
C 24.203125 5.796875 21.59375 5.796875 20.203125 5.796875 
L 16.09375 5.796875 
L 16.09375 24.0625 
C 16.09375 33.859375 22.90625 38.1875 28.296875 38.1875 
C 34.09375 38.1875 35.296875 34.859375 35.296875 29.109375 
L 35.296875 5.796875 
L 31.203125 5.796875 
C 29.796875 5.796875 27.203125 5.796875 27.203125 2.890625 
C 27.203125 0 29.796875 0 31.203125 0 
L 45.90625 0 
C 47.296875 0 49.90625 0 49.90625 2.890625 
C 49.90625 5.796875 47.296875 5.796875 45.90625 5.796875 
L 41.796875 5.796875 
z
" id="CMTT12-110"/>
      <path d="M 41.796875 56.890625 
C 41.796875 59.984375 41.203125 61 37.796875 61 
L 31.203125 61 
C 29.796875 61 27.203125 61 27.203125 58.09375 
C 27.203125 55.1875 29.796875 55.1875 31.203125 55.1875 
L 35.296875 55.1875 
L 35.296875 38.984375 
C 33.703125 40.59375 29.59375 44 23.5 44 
C 12.90625 44 3.703125 34.3125 3.703125 21.4375 
C 3.703125 8.875 12.296875 -1 22.59375 -1 
C 29.09375 -1 33.40625 2.890625 35.296875 5.09375 
C 35.296875 0.890625 35.296875 -0.40625 39.296875 -0.40625 
L 45.90625 -0.40625 
C 47.296875 -0.40625 49.90625 -0.40625 49.90625 2.5 
C 49.90625 5.40625 47.296875 5.40625 45.90625 5.40625 
L 41.796875 5.40625 
z
M 35.296875 18.890625 
C 35.296875 13.171875 30.703125 4.796875 23.203125 4.796875 
C 16 4.796875 10.203125 12.25 10.203125 21.4375 
C 10.203125 31.25 17 38.1875 24.09375 38.1875 
C 30.59375 38.1875 35.296875 32.171875 35.296875 26.859375 
z
" id="CMTT12-100"/>
      <path d="M 45.59375 21.390625 
C 45.59375 34.046875 36.5 44 25.703125 44 
C 14.90625 44 5.796875 34.046875 5.796875 21.390625 
C 5.796875 8.640625 15 -1 25.703125 -1 
C 36.40625 -1 45.59375 8.640625 45.59375 21.390625 
z
M 25.703125 4.796875 
C 18.5 4.796875 12.296875 12.484375 12.296875 22.09375 
C 12.296875 31.515625 18.703125 38.1875 25.703125 38.1875 
C 32.703125 38.1875 39.09375 31.515625 39.09375 22.09375 
C 39.09375 12.390625 32.90625 4.796875 25.703125 4.796875 
z
" id="CMTT12-111"/>
      <path d="M 45.296875 30.515625 
C 45.296875 32.75 45.296875 44 36.5 44 
C 33 44 29.59375 42.390625 26.90625 38.6875 
C 26.296875 40.1875 24.09375 44 19.296875 44 
C 14.796875 44 11.703125 41.09375 10.90625 40.1875 
C 10.796875 43.390625 8.703125 43.390625 6.90625 43.390625 
L 3.90625 43.390625 
C 2.5 43.390625 -0.109375 43.390625 -0.109375 40.484375 
C -0.109375 37.59375 2.203125 37.59375 5.296875 37.59375 
L 5.296875 5.796875 
C 2.09375 5.796875 -0.109375 5.796875 -0.109375 2.890625 
C -0.109375 0 2.5 0 3.90625 0 
L 12.296875 0 
C 13.703125 0 16.296875 0 16.296875 2.890625 
C 16.296875 5.796875 14 5.796875 10.90625 5.796875 
L 10.90625 24.359375 
C 10.90625 32.84375 14.5 38.1875 18.90625 38.1875 
C 21.703125 38.1875 22.5 34.65625 22.5 29.921875 
L 22.5 5.796875 
C 20.796875 5.796875 18.09375 5.796875 18.09375 2.890625 
C 18.09375 0 20.796875 0 22.203125 0 
L 29.5 0 
C 30.90625 0 33.5 0 33.5 2.890625 
C 33.5 5.796875 31.203125 5.796875 28.09375 5.796875 
L 28.09375 24.359375 
C 28.09375 32.84375 31.703125 38.1875 36.09375 38.1875 
C 38.90625 38.1875 39.703125 34.65625 39.703125 29.921875 
L 39.703125 5.796875 
C 38 5.796875 35.296875 5.796875 35.296875 2.890625 
C 35.296875 0 38 0 39.40625 0 
L 46.703125 0 
C 48.09375 0 50.703125 0 50.703125 2.890625 
C 50.703125 5.796875 48.40625 5.796875 45.296875 5.796875 
z
" id="CMTT12-109"/>
     </defs>
     <g style="fill:#262626;" transform="translate(86.029852 116.884662)scale(0.11 -0.11)">
      <use transform="scale(0.996264)" xlink:href="#CMTT12-82"/>
      <use transform="translate(51.266111 0)scale(0.996264)" xlink:href="#CMTT12-97"/>
      <use transform="translate(102.532222 0)scale(0.996264)" xlink:href="#CMTT12-110"/>
      <use transform="translate(153.798333 0)scale(0.996264)" xlink:href="#CMTT12-100"/>
      <use transform="translate(205.064443 0)scale(0.996264)" xlink:href="#CMTT12-111"/>
      <use transform="translate(256.330554 0)scale(0.996264)" xlink:href="#CMTT12-109"/>
     </g>
    </g>
   </g>
  </g>
 </g>
 <defs>
  <clipPath id="p51f8e02aed">
   <rect height="266.112" width="357.12" x="45.329852" y="21.50218"/>
  </clipPath>
 </defs>
</svg>
