<?xml version="1.0" encoding="utf-8" standalone="no"?>
<!DOCTYPE svg PUBLIC "-//W3C//DTD SVG 1.1//EN"
  "http://www.w3.org/Graphics/SVG/1.1/DTD/svg11.dtd">
<!-- Created with matplotlib (http://matplotlib.org/) -->
<svg height="345.6pt" version="1.1" viewBox="0 0 460.8 345.6" width="460.8pt" xmlns="http://www.w3.org/2000/svg" xmlns:xlink="http://www.w3.org/1999/xlink">
 <defs>
  <style type="text/css">
*{stroke-linecap:butt;stroke-linejoin:round;}
  </style>
 </defs>
 <g id="figure_1">
  <g id="patch_1">
   <path d="M 0 345.6 
L 460.8 345.6 
L 460.8 0 
L 0 0 
z
" style="fill:#ffffff;"/>
  </g>
  <g id="axes_1">
   <g id="line2d_1">
    <path clip-path="url(#pf258d44353)" d="M 236.16 53.568 
L 88.589752 93.888 
" style="fill:none;stroke:#000000;stroke-linecap:round;stroke-width:0.5;"/>
   </g>
   <g id="line2d_2">
    <path clip-path="url(#pf258d44353)" d="M 88.589752 93.888 
L 73.832727 134.208 
" style="fill:none;stroke:#000000;stroke-linecap:round;stroke-width:0.5;"/>
   </g>
   <g id="line2d_3">
    <path clip-path="url(#pf258d44353)" d="M 73.832727 134.208 
L 76.784132 174.528 
" style="fill:none;stroke:#000000;stroke-linecap:round;stroke-width:0.5;"/>
   </g>
   <g id="line2d_4">
    <path clip-path="url(#pf258d44353)" d="M 76.784132 174.528 
L 77.964694 214.848 
" style="fill:none;stroke:#000000;stroke-linecap:round;stroke-width:0.5;"/>
   </g>
   <g id="line2d_5">
    <path clip-path="url(#pf258d44353)" d="M 77.964694 214.848 
L 77.846638 255.168 
" style="fill:none;stroke:#000000;stroke-linecap:round;stroke-width:0.5;"/>
   </g>
   <g id="line2d_6">
    <path clip-path="url(#pf258d44353)" d="M 77.846638 255.168 
L 77.846638 295.488 
" style="fill:none;stroke:#000000;stroke-linecap:round;stroke-width:0.5;"/>
   </g>
   <g id="line2d_7">
    <path clip-path="url(#pf258d44353)" d="M 236.16 53.568 
L 162.374876 93.888 
" style="fill:none;stroke:#000000;stroke-linecap:round;stroke-width:0.5;"/>
   </g>
   <g id="line2d_8">
    <path clip-path="url(#pf258d44353)" d="M 162.374876 93.888 
L 177.131901 134.208 
" style="fill:none;stroke:#000000;stroke-linecap:round;stroke-width:0.5;"/>
   </g>
   <g id="line2d_9">
    <path clip-path="url(#pf258d44353)" d="M 177.131901 134.208 
L 174.180496 174.528 
" style="fill:none;stroke:#000000;stroke-linecap:round;stroke-width:0.5;"/>
   </g>
   <g id="line2d_10">
    <path clip-path="url(#pf258d44353)" d="M 174.180496 174.528 
L 172.999934 214.848 
" style="fill:none;stroke:#000000;stroke-linecap:round;stroke-width:0.5;"/>
   </g>
   <g id="line2d_11">
    <path clip-path="url(#pf258d44353)" d="M 172.999934 214.848 
L 172.763821 255.168 
" style="fill:none;stroke:#000000;stroke-linecap:round;stroke-width:0.5;"/>
   </g>
   <g id="line2d_12">
    <path clip-path="url(#pf258d44353)" d="M 172.763821 255.168 
L 172.811044 295.488 
" style="fill:none;stroke:#000000;stroke-linecap:round;stroke-width:0.5;"/>
   </g>
   <g id="line2d_13">
    <path clip-path="url(#pf258d44353)" d="M 236.16 53.568 
L 236.16 93.888 
" style="fill:none;stroke:#000000;stroke-linecap:round;stroke-width:0.5;"/>
   </g>
   <g id="line2d_14">
    <path clip-path="url(#pf258d44353)" d="M 236.16 93.888 
L 221.402975 134.208 
" style="fill:none;stroke:#000000;stroke-linecap:round;stroke-width:0.5;"/>
   </g>
   <g id="line2d_15">
    <path clip-path="url(#pf258d44353)" d="M 221.402975 134.208 
L 215.500165 174.528 
" style="fill:none;stroke:#000000;stroke-linecap:round;stroke-width:0.5;"/>
   </g>
   <g id="line2d_16">
    <path clip-path="url(#pf258d44353)" d="M 215.500165 174.528 
L 214.319603 214.848 
" style="fill:none;stroke:#000000;stroke-linecap:round;stroke-width:0.5;"/>
   </g>
   <g id="line2d_17">
    <path clip-path="url(#pf258d44353)" d="M 214.319603 214.848 
L 214.319603 255.168 
" style="fill:none;stroke:#000000;stroke-linecap:round;stroke-width:0.5;"/>
   </g>
   <g id="line2d_18">
    <path clip-path="url(#pf258d44353)" d="M 214.319603 255.168 
L 214.319603 295.488 
" style="fill:none;stroke:#000000;stroke-linecap:round;stroke-width:0.5;"/>
   </g>
   <g id="line2d_19">
    <path clip-path="url(#pf258d44353)" d="M 236.16 53.568 
L 309.945124 93.888 
" style="fill:none;stroke:#000000;stroke-linecap:round;stroke-width:3.826241;"/>
   </g>
   <g id="line2d_20">
    <path clip-path="url(#pf258d44353)" d="M 309.945124 93.888 
L 280.431074 134.208 
" style="fill:none;stroke:#000000;stroke-linecap:round;stroke-width:0.5;"/>
   </g>
   <g id="line2d_21">
    <path clip-path="url(#pf258d44353)" d="M 280.431074 134.208 
L 277.479669 174.528 
" style="fill:none;stroke:#000000;stroke-linecap:round;stroke-width:0.5;"/>
   </g>
   <g id="line2d_22">
    <path clip-path="url(#pf258d44353)" d="M 277.479669 174.528 
L 278.660231 214.848 
" style="fill:none;stroke:#000000;stroke-linecap:round;stroke-width:0.5;"/>
   </g>
   <g id="line2d_23">
    <path clip-path="url(#pf258d44353)" d="M 278.660231 214.848 
L 278.660231 255.168 
" style="fill:none;stroke:#000000;stroke-linecap:round;stroke-width:0.5;"/>
   </g>
   <g id="line2d_24">
    <path clip-path="url(#pf258d44353)" d="M 278.660231 255.168 
L 278.660231 295.488 
" style="fill:none;stroke:#000000;stroke-linecap:round;stroke-width:0.5;"/>
   </g>
   <g id="line2d_25">
    <path clip-path="url(#pf258d44353)" d="M 309.945124 93.888 
L 295.188099 134.208 
" style="fill:none;stroke:#000000;stroke-linecap:round;stroke-width:0.574468;"/>
   </g>
   <g id="line2d_26">
    <path clip-path="url(#pf258d44353)" d="M 295.188099 134.208 
L 289.285289 174.528 
" style="fill:none;stroke:#000000;stroke-linecap:round;stroke-width:0.5;"/>
   </g>
   <g id="line2d_27">
    <path clip-path="url(#pf258d44353)" d="M 289.285289 174.528 
L 290.465851 214.848 
" style="fill:none;stroke:#000000;stroke-linecap:round;stroke-width:0.5;"/>
   </g>
   <g id="line2d_28">
    <path clip-path="url(#pf258d44353)" d="M 290.465851 214.848 
L 290.229739 255.168 
" style="fill:none;stroke:#000000;stroke-linecap:round;stroke-width:0.5;"/>
   </g>
   <g id="line2d_29">
    <path clip-path="url(#pf258d44353)" d="M 290.229739 255.168 
L 290.206128 295.488 
" style="fill:none;stroke:#000000;stroke-linecap:round;stroke-width:0.5;"/>
   </g>
   <g id="line2d_30">
    <path clip-path="url(#pf258d44353)" d="M 295.188099 134.208 
L 292.236694 174.528 
" style="fill:none;stroke:#000000;stroke-linecap:round;stroke-width:0.5;"/>
   </g>
   <g id="line2d_31">
    <path clip-path="url(#pf258d44353)" d="M 292.236694 174.528 
L 292.236694 214.848 
" style="fill:none;stroke:#000000;stroke-linecap:round;stroke-width:0.5;"/>
   </g>
   <g id="line2d_32">
    <path clip-path="url(#pf258d44353)" d="M 292.236694 214.848 
L 292.000582 255.168 
" style="fill:none;stroke:#000000;stroke-linecap:round;stroke-width:0.5;"/>
   </g>
   <g id="line2d_33">
    <path clip-path="url(#pf258d44353)" d="M 292.000582 255.168 
L 291.953359 295.488 
" style="fill:none;stroke:#000000;stroke-linecap:round;stroke-width:0.5;"/>
   </g>
   <g id="line2d_34">
    <path clip-path="url(#pf258d44353)" d="M 295.188099 134.208 
L 295.188099 174.528 
" style="fill:none;stroke:#000000;stroke-linecap:round;stroke-width:0.5;"/>
   </g>
   <g id="line2d_35">
    <path clip-path="url(#pf258d44353)" d="M 295.188099 174.528 
L 296.368661 214.848 
" style="fill:none;stroke:#000000;stroke-linecap:round;stroke-width:0.5;"/>
   </g>
   <g id="line2d_36">
    <path clip-path="url(#pf258d44353)" d="M 296.368661 214.848 
L 296.250605 255.168 
" style="fill:none;stroke:#000000;stroke-linecap:round;stroke-width:0.5;"/>
   </g>
   <g id="line2d_37">
    <path clip-path="url(#pf258d44353)" d="M 296.250605 255.168 
L 296.297827 295.488 
" style="fill:none;stroke:#000000;stroke-linecap:round;stroke-width:0.5;"/>
   </g>
   <g id="line2d_38">
    <path clip-path="url(#pf258d44353)" d="M 295.188099 134.208 
L 301.090909 174.528 
" style="fill:none;stroke:#000000;stroke-linecap:round;stroke-width:0.5;"/>
   </g>
   <g id="line2d_39">
    <path clip-path="url(#pf258d44353)" d="M 301.090909 174.528 
L 302.271471 214.848 
" style="fill:none;stroke:#000000;stroke-linecap:round;stroke-width:0.5;"/>
   </g>
   <g id="line2d_40">
    <path clip-path="url(#pf258d44353)" d="M 302.271471 214.848 
L 302.153415 255.168 
" style="fill:none;stroke:#000000;stroke-linecap:round;stroke-width:0.5;"/>
   </g>
   <g id="line2d_41">
    <path clip-path="url(#pf258d44353)" d="M 302.153415 255.168 
L 302.153415 295.488 
" style="fill:none;stroke:#000000;stroke-linecap:round;stroke-width:0.5;"/>
   </g>
   <g id="line2d_42">
    <path clip-path="url(#pf258d44353)" d="M 309.945124 93.888 
L 309.945124 134.208 
" style="fill:none;stroke:#000000;stroke-linecap:round;stroke-width:3.677305;"/>
   </g>
   <g id="line2d_43">
    <path clip-path="url(#pf258d44353)" d="M 309.945124 134.208 
L 304.042314 174.528 
" style="fill:none;stroke:#000000;stroke-linecap:round;stroke-width:3.62766;"/>
   </g>
   <g id="line2d_44">
    <path clip-path="url(#pf258d44353)" d="M 304.042314 174.528 
L 302.861752 214.848 
" style="fill:none;stroke:#000000;stroke-linecap:round;stroke-width:0.5;"/>
   </g>
   <g id="line2d_45">
    <path clip-path="url(#pf258d44353)" d="M 302.861752 214.848 
L 302.861752 255.168 
" style="fill:none;stroke:#000000;stroke-linecap:round;stroke-width:0.5;"/>
   </g>
   <g id="line2d_46">
    <path clip-path="url(#pf258d44353)" d="M 302.861752 255.168 
L 302.838141 295.488 
" style="fill:none;stroke:#000000;stroke-linecap:round;stroke-width:0.5;"/>
   </g>
   <g id="line2d_47">
    <path clip-path="url(#pf258d44353)" d="M 304.042314 174.528 
L 303.452033 214.848 
" style="fill:none;stroke:#000000;stroke-linecap:round;stroke-width:3.553191;"/>
   </g>
   <g id="line2d_48">
    <path clip-path="url(#pf258d44353)" d="M 303.452033 214.848 
L 303.215921 255.168 
" style="fill:none;stroke:#000000;stroke-linecap:round;stroke-width:0.5;"/>
   </g>
   <g id="line2d_49">
    <path clip-path="url(#pf258d44353)" d="M 303.215921 255.168 
L 303.215921 295.488 
" style="fill:none;stroke:#000000;stroke-linecap:round;stroke-width:0.5;"/>
   </g>
   <g id="line2d_50">
    <path clip-path="url(#pf258d44353)" d="M 303.452033 214.848 
L 303.333977 255.168 
" style="fill:none;stroke:#000000;stroke-linecap:round;stroke-width:0.5;"/>
   </g>
   <g id="line2d_51">
    <path clip-path="url(#pf258d44353)" d="M 303.333977 255.168 
L 303.286754 295.488 
" style="fill:none;stroke:#000000;stroke-linecap:round;stroke-width:0.5;"/>
   </g>
   <g id="line2d_52">
    <path clip-path="url(#pf258d44353)" d="M 303.452033 214.848 
L 303.452033 255.168 
" style="fill:none;stroke:#000000;stroke-linecap:round;stroke-width:3.478723;"/>
   </g>
   <g id="line2d_53">
    <path clip-path="url(#pf258d44353)" d="M 303.452033 255.168 
L 303.404811 295.488 
" style="fill:none;stroke:#000000;stroke-linecap:round;stroke-width:0.5;"/>
   </g>
   <g id="line2d_54">
    <path clip-path="url(#pf258d44353)" d="M 303.452033 255.168 
L 303.428422 295.488 
" style="fill:none;stroke:#000000;stroke-linecap:round;stroke-width:3.429078;"/>
   </g>
   <g id="line2d_55">
    <path clip-path="url(#pf258d44353)" d="M 303.452033 255.168 
L 303.499256 295.488 
" style="fill:none;stroke:#000000;stroke-linecap:round;stroke-width:0.5;"/>
   </g>
   <g id="line2d_56">
    <path clip-path="url(#pf258d44353)" d="M 303.452033 214.848 
L 303.688145 255.168 
" style="fill:none;stroke:#000000;stroke-linecap:round;stroke-width:0.5;"/>
   </g>
   <g id="line2d_57">
    <path clip-path="url(#pf258d44353)" d="M 303.688145 255.168 
L 303.711757 295.488 
" style="fill:none;stroke:#000000;stroke-linecap:round;stroke-width:0.5;"/>
   </g>
   <g id="line2d_58">
    <path clip-path="url(#pf258d44353)" d="M 304.042314 174.528 
L 304.042314 214.848 
" style="fill:none;stroke:#000000;stroke-linecap:round;stroke-width:0.5;"/>
   </g>
   <g id="line2d_59">
    <path clip-path="url(#pf258d44353)" d="M 304.042314 214.848 
L 303.924258 255.168 
" style="fill:none;stroke:#000000;stroke-linecap:round;stroke-width:0.5;"/>
   </g>
   <g id="line2d_60">
    <path clip-path="url(#pf258d44353)" d="M 303.924258 255.168 
L 303.900647 295.488 
" style="fill:none;stroke:#000000;stroke-linecap:round;stroke-width:0.5;"/>
   </g>
   <g id="line2d_61">
    <path clip-path="url(#pf258d44353)" d="M 304.042314 174.528 
L 305.222876 214.848 
" style="fill:none;stroke:#000000;stroke-linecap:round;stroke-width:0.5;"/>
   </g>
   <g id="line2d_62">
    <path clip-path="url(#pf258d44353)" d="M 305.222876 214.848 
L 305.340932 255.168 
" style="fill:none;stroke:#000000;stroke-linecap:round;stroke-width:0.5;"/>
   </g>
   <g id="line2d_63">
    <path clip-path="url(#pf258d44353)" d="M 305.340932 255.168 
L 305.317321 295.488 
" style="fill:none;stroke:#000000;stroke-linecap:round;stroke-width:0.5;"/>
   </g>
   <g id="line2d_64">
    <path clip-path="url(#pf258d44353)" d="M 309.945124 134.208 
L 306.993719 174.528 
" style="fill:none;stroke:#000000;stroke-linecap:round;stroke-width:0.5;"/>
   </g>
   <g id="line2d_65">
    <path clip-path="url(#pf258d44353)" d="M 306.993719 174.528 
L 305.813157 214.848 
" style="fill:none;stroke:#000000;stroke-linecap:round;stroke-width:0.5;"/>
   </g>
   <g id="line2d_66">
    <path clip-path="url(#pf258d44353)" d="M 305.813157 214.848 
L 306.049269 255.168 
" style="fill:none;stroke:#000000;stroke-linecap:round;stroke-width:0.5;"/>
   </g>
   <g id="line2d_67">
    <path clip-path="url(#pf258d44353)" d="M 306.049269 255.168 
L 306.025658 295.488 
" style="fill:none;stroke:#000000;stroke-linecap:round;stroke-width:0.5;"/>
   </g>
   <g id="line2d_68">
    <path clip-path="url(#pf258d44353)" d="M 309.945124 134.208 
L 315.847934 174.528 
" style="fill:none;stroke:#000000;stroke-linecap:round;stroke-width:0.5;"/>
   </g>
   <g id="line2d_69">
    <path clip-path="url(#pf258d44353)" d="M 315.847934 174.528 
L 317.028496 214.848 
" style="fill:none;stroke:#000000;stroke-linecap:round;stroke-width:0.5;"/>
   </g>
   <g id="line2d_70">
    <path clip-path="url(#pf258d44353)" d="M 317.028496 214.848 
L 317.146552 255.168 
" style="fill:none;stroke:#000000;stroke-linecap:round;stroke-width:0.5;"/>
   </g>
   <g id="line2d_71">
    <path clip-path="url(#pf258d44353)" d="M 317.146552 255.168 
L 317.122941 295.488 
" style="fill:none;stroke:#000000;stroke-linecap:round;stroke-width:0.5;"/>
   </g>
   <g id="line2d_72">
    <path clip-path="url(#pf258d44353)" d="M 309.945124 93.888 
L 339.459174 134.208 
" style="fill:none;stroke:#000000;stroke-linecap:round;stroke-width:0.5;"/>
   </g>
   <g id="line2d_73">
    <path clip-path="url(#pf258d44353)" d="M 339.459174 134.208 
L 339.459174 174.528 
" style="fill:none;stroke:#000000;stroke-linecap:round;stroke-width:0.5;"/>
   </g>
   <g id="line2d_74">
    <path clip-path="url(#pf258d44353)" d="M 339.459174 174.528 
L 340.049455 214.848 
" style="fill:none;stroke:#000000;stroke-linecap:round;stroke-width:0.5;"/>
   </g>
   <g id="line2d_75">
    <path clip-path="url(#pf258d44353)" d="M 340.049455 214.848 
L 340.285567 255.168 
" style="fill:none;stroke:#000000;stroke-linecap:round;stroke-width:0.5;"/>
   </g>
   <g id="line2d_76">
    <path clip-path="url(#pf258d44353)" d="M 340.285567 255.168 
L 340.238344 295.488 
" style="fill:none;stroke:#000000;stroke-linecap:round;stroke-width:0.5;"/>
   </g>
   <g id="line2d_77">
    <path clip-path="url(#pf258d44353)" d="M 236.16 53.568 
L 383.730248 93.888 
" style="fill:none;stroke:#000000;stroke-linecap:round;stroke-width:0.574468;"/>
   </g>
   <g id="line2d_78">
    <path clip-path="url(#pf258d44353)" d="M 383.730248 93.888 
L 354.216198 134.208 
" style="fill:none;stroke:#000000;stroke-linecap:round;stroke-width:0.5;"/>
   </g>
   <g id="line2d_79">
    <path clip-path="url(#pf258d44353)" d="M 354.216198 134.208 
L 351.264793 174.528 
" style="fill:none;stroke:#000000;stroke-linecap:round;stroke-width:0.5;"/>
   </g>
   <g id="line2d_80">
    <path clip-path="url(#pf258d44353)" d="M 351.264793 174.528 
L 351.264793 214.848 
" style="fill:none;stroke:#000000;stroke-linecap:round;stroke-width:0.5;"/>
   </g>
   <g id="line2d_81">
    <path clip-path="url(#pf258d44353)" d="M 351.264793 214.848 
L 351.146737 255.168 
" style="fill:none;stroke:#000000;stroke-linecap:round;stroke-width:0.5;"/>
   </g>
   <g id="line2d_82">
    <path clip-path="url(#pf258d44353)" d="M 351.146737 255.168 
L 351.123126 295.488 
" style="fill:none;stroke:#000000;stroke-linecap:round;stroke-width:0.5;"/>
   </g>
   <g id="line2d_83">
    <path clip-path="url(#pf258d44353)" d="M 383.730248 93.888 
L 368.973223 134.208 
" style="fill:none;stroke:#000000;stroke-linecap:round;stroke-width:0.5;"/>
   </g>
   <g id="line2d_84">
    <path clip-path="url(#pf258d44353)" d="M 368.973223 134.208 
L 366.021818 174.528 
" style="fill:none;stroke:#000000;stroke-linecap:round;stroke-width:0.5;"/>
   </g>
   <g id="line2d_85">
    <path clip-path="url(#pf258d44353)" d="M 366.021818 174.528 
L 364.841256 214.848 
" style="fill:none;stroke:#000000;stroke-linecap:round;stroke-width:0.5;"/>
   </g>
   <g id="line2d_86">
    <path clip-path="url(#pf258d44353)" d="M 364.841256 214.848 
L 364.605144 255.168 
" style="fill:none;stroke:#000000;stroke-linecap:round;stroke-width:0.5;"/>
   </g>
   <g id="line2d_87">
    <path clip-path="url(#pf258d44353)" d="M 364.605144 255.168 
L 364.581533 295.488 
" style="fill:none;stroke:#000000;stroke-linecap:round;stroke-width:0.5;"/>
   </g>
   <g id="line2d_88">
    <path clip-path="url(#pf258d44353)" d="M 383.730248 93.888 
L 383.730248 134.208 
" style="fill:none;stroke:#000000;stroke-linecap:round;stroke-width:0.5;"/>
   </g>
   <g id="line2d_89">
    <path clip-path="url(#pf258d44353)" d="M 383.730248 134.208 
L 377.827438 174.528 
" style="fill:none;stroke:#000000;stroke-linecap:round;stroke-width:0.5;"/>
   </g>
   <g id="line2d_90">
    <path clip-path="url(#pf258d44353)" d="M 377.827438 174.528 
L 377.237157 214.848 
" style="fill:none;stroke:#000000;stroke-linecap:round;stroke-width:0.5;"/>
   </g>
   <g id="line2d_91">
    <path clip-path="url(#pf258d44353)" d="M 377.237157 214.848 
L 377.237157 255.168 
" style="fill:none;stroke:#000000;stroke-linecap:round;stroke-width:0.5;"/>
   </g>
   <g id="line2d_92">
    <path clip-path="url(#pf258d44353)" d="M 377.237157 255.168 
L 377.213546 295.488 
" style="fill:none;stroke:#000000;stroke-linecap:round;stroke-width:0.5;"/>
   </g>
   <g id="line2d_93">
    <path clip-path="url(#pf258d44353)" d="M 383.730248 93.888 
L 398.487273 134.208 
" style="fill:none;stroke:#000000;stroke-linecap:round;stroke-width:0.5;"/>
   </g>
   <g id="line2d_94">
    <path clip-path="url(#pf258d44353)" d="M 398.487273 134.208 
L 392.584463 174.528 
" style="fill:none;stroke:#000000;stroke-linecap:round;stroke-width:0.5;"/>
   </g>
   <g id="line2d_95">
    <path clip-path="url(#pf258d44353)" d="M 392.584463 174.528 
L 391.403901 214.848 
" style="fill:none;stroke:#000000;stroke-linecap:round;stroke-width:0.5;"/>
   </g>
   <g id="line2d_96">
    <path clip-path="url(#pf258d44353)" d="M 391.403901 214.848 
L 391.285845 255.168 
" style="fill:none;stroke:#000000;stroke-linecap:round;stroke-width:0.5;"/>
   </g>
   <g id="line2d_97">
    <path clip-path="url(#pf258d44353)" d="M 391.285845 255.168 
L 391.333067 295.488 
" style="fill:none;stroke:#000000;stroke-linecap:round;stroke-width:0.5;"/>
   </g>
   <g id="text_1">
    <!-- \texttt{KL-OLOP} -->
    <defs>
     <path d="M 27.09375 35.734375 
L 42.40625 55.1875 
C 45.296875 55.1875 47.59375 55.1875 47.59375 58.09375 
C 47.59375 61 45 61 43.59375 61 
L 35.203125 61 
C 33.796875 61 31.203125 61 31.203125 58.09375 
C 31.203125 55.1875 33.796875 55.1875 35.203125 55.1875 
L 14.203125 28.453125 
L 14.203125 55.1875 
L 16.203125 55.1875 
C 17.59375 55.1875 20.203125 55.1875 20.203125 58.09375 
C 20.203125 61 17.59375 61 16.203125 61 
L 6.59375 61 
C 5.203125 61 2.59375 61 2.59375 58.09375 
C 2.59375 55.1875 5.203125 55.1875 6.59375 55.1875 
L 8.59375 55.1875 
L 8.59375 5.796875 
L 6.59375 5.796875 
C 5.203125 5.796875 2.59375 5.796875 2.59375 2.890625 
C 2.59375 0 5.203125 0 6.59375 0 
L 16.203125 0 
C 17.59375 0 20.203125 0 20.203125 2.890625 
C 20.203125 5.796875 17.59375 5.796875 16.203125 5.796875 
L 14.203125 5.796875 
L 14.203125 19.359375 
L 23.296875 30.9375 
L 37.203125 5.796875 
C 35.90625 5.796875 33.296875 5.796875 33.296875 2.890625 
C 33.296875 0 35.90625 0 37.296875 0 
L 44.5 0 
C 45.90625 0 48.5 0 48.5 2.890625 
C 48.5 5.796875 46.09375 5.796875 43.59375 5.796875 
z
" id="CMTT12-75"/>
     <path d="M 17.296875 55.1875 
L 22.5 55.1875 
C 23.90625 55.1875 26.5 55.1875 26.5 58.09375 
C 26.5 61 23.90625 61 22.5 61 
L 7.5 61 
C 6.09375 61 3.40625 61 3.40625 58.09375 
C 3.40625 55.1875 6.09375 55.1875 7.5 55.1875 
L 10.796875 55.1875 
L 10.796875 5.796875 
L 7.5 5.796875 
C 6.09375 5.796875 3.40625 5.796875 3.40625 2.890625 
C 3.40625 0 6.09375 0 7.5 0 
L 43.90625 0 
C 47.203125 0 47.90625 0.890625 47.90625 4.09375 
L 47.90625 12.28125 
C 47.90625 13.96875 47.90625 16.265625 44.703125 16.265625 
C 41.40625 16.265625 41.40625 14.078125 41.40625 12.28125 
L 41.40625 5.796875 
L 17.296875 5.796875 
z
" id="CMTT12-76"/>
     <path d="M 41.40625 27.484375 
C 42.703125 27.484375 45.90625 27.484375 45.90625 30.6875 
C 45.90625 34 42.796875 34 41.40625 34 
L 10 34 
C 8.703125 34 5.5 34 5.5 30.796875 
C 5.5 27.484375 8.59375 27.484375 10 27.484375 
z
" id="CMTT12-45"/>
     <path d="M 45.90625 30.4375 
C 45.90625 59.296875 43.796875 62 25.703125 62 
C 7.59375 62 5.5 59.296875 5.5 30.546875 
C 5.5 1.6875 7.59375 -1 25.703125 -1 
C 43.796875 -1 45.90625 1.6875 45.90625 30.4375 
z
M 25.703125 4.796875 
C 16.59375 4.796875 14.40625 7.171875 13.296875 11.71875 
C 12 16.78125 12 25.6875 12 31.328125 
C 12 37.671875 12 44.703125 13.09375 49.453125 
C 14.5 54.90625 17.5 56.1875 25.703125 56.1875 
C 33.59375 56.1875 36.796875 55 38.203125 49.75 
C 39.40625 45.09375 39.40625 37.375 39.40625 31.328125 
C 39.40625 25.1875 39.40625 17.5625 38.296875 12.21875 
C 37.203125 7.171875 35 4.796875 25.703125 4.796875 
z
" id="CMTT12-79"/>
     <path d="M 16.09375 25 
L 28.5 25 
C 40.09375 25 47.09375 34.15625 47.09375 42.9375 
C 47.09375 52.125 39.90625 61 28.5 61 
L 6.90625 61 
C 5.5 61 2.796875 61 2.796875 58.09375 
C 2.796875 55.1875 5.5 55.1875 6.90625 55.1875 
L 9.59375 55.1875 
L 9.59375 5.796875 
L 6.90625 5.796875 
C 5.5 5.796875 2.796875 5.796875 2.796875 2.890625 
C 2.796875 0 5.5 0 6.90625 0 
L 18.796875 0 
C 20.203125 0 22.90625 0 22.90625 2.890625 
C 22.90625 5.796875 20.203125 5.796875 18.796875 5.796875 
L 16.09375 5.796875 
z
M 16.09375 55.1875 
L 26.703125 55.1875 
C 36.296875 55.1875 40.59375 48.28125 40.59375 43.046875 
C 40.59375 37.40625 36.09375 30.796875 26.703125 30.796875 
L 16.09375 30.796875 
z
" id="CMTT12-80"/>
    </defs>
    <g transform="translate(214.628233 35.472)scale(0.12 -0.12)">
     <use transform="scale(0.996264)" xlink:href="#CMTT12-75"/>
     <use transform="translate(51.266111 0)scale(0.996264)" xlink:href="#CMTT12-76"/>
     <use transform="translate(102.532222 0)scale(0.996264)" xlink:href="#CMTT12-45"/>
     <use transform="translate(153.798333 0)scale(0.996264)" xlink:href="#CMTT12-79"/>
     <use transform="translate(205.064443 0)scale(0.996264)" xlink:href="#CMTT12-76"/>
     <use transform="translate(256.330554 0)scale(0.996264)" xlink:href="#CMTT12-79"/>
     <use transform="translate(307.596665 0)scale(0.996264)" xlink:href="#CMTT12-80"/>
    </g>
   </g>
  </g>
 </g>
 <defs>
  <clipPath id="pf258d44353">
   <rect height="266.112" width="357.12" x="57.6" y="41.472"/>
  </clipPath>
 </defs>
</svg>
