<?xml version="1.0" encoding="UTF-8" standalone="no"?>
<svg xmlns:dc="http://purl.org/dc/elements/1.1/" xmlns:cc="http://creativecommons.org/ns#" xmlns:rdf="http://www.w3.org/1999/02/22-rdf-syntax-ns#" xmlns:svg="http://www.w3.org/2000/svg" xmlns="http://www.w3.org/2000/svg" viewBox="0 0 816 1056" height="1056" width="816" xml:space="preserve" id="svg2" version="1.1"><metadata id="metadata8"><rdf:RDF><cc:Work rdf:about=""><dc:format>image/svg+xml</dc:format><dc:type rdf:resource="http://purl.org/dc/dcmitype/StillImage"/></cc:Work></rdf:RDF></metadata><defs id="defs6"><clipPath id="clipPath18" clipPathUnits="userSpaceOnUse"><path id="path16" d="M 0,792 H 612 V 0 H 0 Z"/></clipPath></defs><g transform="matrix(1.3333333,0,0,-1.3333333,0,1056)" id="g10"><g id="g12"><g clip-path="url(#clipPath18)" id="g14"><g transform="translate(193.9829,446.1064)" id="g20"><path id="path22" style="fill:#ffce00;fill-opacity:1;fill-rule:nonzero;stroke:none" d="m 0,0 c 0,4.718 -2.137,10.683 -7.301,10.683 -6.232,0 -8.724,-6.41 -8.724,-22.257 0,-15.314 1.424,-24.928 8.813,-24.928 3.027,0 7.924,3.294 7.924,10.149 v 6.499 h -8.458 v 9.437 H 12.998 V -44.693 H 3.561 v 5.876 H 3.383 c -3.027,-4.986 -7.389,-7.123 -13.355,-7.123 -15.758,0 -18.874,11.753 -18.874,33.742 0,21.367 4.986,32.318 21.367,32.318 14.067,0 19.765,-7.211 19.765,-20.12 z"/></g><g transform="translate(228.9702,437.2026)" id="g24"><path id="path26" style="fill:#ffce00;fill-opacity:1;fill-rule:nonzero;stroke:none" d="m 0,0 h 5.341 c 6.144,0 9.616,2.671 9.616,9.526 0,5.877 -3.116,8.814 -8.903,8.814 H 0 Z m -12.821,27.778 h 23.683 c 10.505,0 16.915,-5.52 16.915,-16.382 0,-8.457 -3.383,-14.155 -10.594,-15.669 v -0.178 c 8.724,-1.158 10.06,-5.966 10.238,-19.409 0.089,-6.677 0.445,-10.149 2.849,-11.396 v -0.533 H 16.381 c -1.246,1.78 -1.513,4.184 -1.602,6.677 l -0.357,12.197 c -0.177,4.986 -2.403,8.012 -7.567,8.012 H 0 v -26.886 h -12.821 z"/></g><g transform="translate(286.6605,409.6042)" id="g28"><path id="path30" style="fill:#ffce00;fill-opacity:1;fill-rule:nonzero;stroke:none" d="M 0,0 C 7.567,0 8.814,6.499 8.814,23.593 8.814,40.597 7.567,47.185 0,47.185 -7.568,47.185 -8.814,40.597 -8.814,23.593 -8.814,6.499 -7.568,0 0,0 m 0,56.623 c 19.23,0 21.634,-13.711 21.634,-33.03 C 21.634,4.273 19.23,-9.438 0,-9.438 c -19.231,0 -21.634,13.711 -21.634,33.031 0,19.319 2.403,33.03 21.634,33.03"/></g><g transform="translate(328.7699,464.9803)" id="g32"><path id="path34" style="fill:#ffce00;fill-opacity:1;fill-rule:nonzero;stroke:none" d="m 0,0 v -44.337 c 0,-6.321 1.513,-11.039 7.479,-11.039 5.965,0 7.478,4.718 7.478,11.039 V 0 h 12.82 v -44.337 c 0,-16.203 -9.882,-20.477 -20.298,-20.477 -10.417,0 -20.299,3.473 -20.299,20.477 l 0,44.337 z"/></g><g transform="translate(379.6941,436.2234)" id="g36"><path id="path38" style="fill:#ffce00;fill-opacity:1;fill-rule:nonzero;stroke:none" d="m 0,0 h 5.698 c 5.074,0 8.547,3.028 8.547,9.527 0,6.231 -2.493,9.792 -8.904,9.792 H 0 Z M -12.821,28.757 H 9.615 c 12.998,0 17.45,-9.527 17.45,-19.052 0,-13.177 -8.102,-19.143 -20.21,-19.143 H 0 V -34.81 h -12.821 z"/></g><g transform="translate(447.7114,464.9803)" id="g40"><path id="path42" style="fill:#ffce00;fill-opacity:1;fill-rule:nonzero;stroke:none" d="M 0,0 V -10.506 H -22.702 V -25.463 H -1.336 V -35.968 H -22.702 V -53.061 H 0.89 V -63.567 H -35.523 V 0 Z"/></g><g transform="translate(180.1331,357.1686)" id="g44"><path id="path46" style="fill:#231f20;fill-opacity:1;fill-rule:nonzero;stroke:none" d="m 0,0 h 4.713 c 5.419,0 8.483,2.357 8.483,8.405 0,5.184 -2.749,7.776 -7.855,7.776 L 0,16.181 Z M -11.311,24.507 H 9.583 c 9.269,0 14.924,-4.87 14.924,-14.453 0,-7.461 -2.985,-12.488 -9.348,-13.824 v -0.157 c 7.699,-1.022 8.876,-5.263 9.033,-17.124 0.079,-5.891 0.393,-8.954 2.514,-10.054 v -0.471 H 14.453 c -1.1,1.571 -1.336,3.692 -1.415,5.891 l -0.313,10.761 c -0.157,4.399 -2.121,7.069 -6.676,7.069 H 0 v -23.721 h -11.311 z"/></g><g transform="translate(245.0127,381.6759)" id="g48"><path id="path50" style="fill:#231f20;fill-opacity:1;fill-rule:nonzero;stroke:none" d="m 0,0 v -9.269 h -20.03 v -13.196 h 18.852 v -9.268 H -20.03 V -46.814 H 0.785 v -9.269 H -31.341 V 0 Z"/></g><g transform="translate(265.6684,381.6759)" id="g52"><path id="path54" style="fill:#231f20;fill-opacity:1;fill-rule:nonzero;stroke:none" d="m 0,0 13.668,-38.41 h 0.156 V 0 H 24.193 V -56.083 H 11.311 L -2.513,-16.809 H -2.67 V -56.083 H -13.039 V 0 Z"/></g><g transform="translate(310.8324,346.7223)" id="g56"><path id="path58" style="fill:#231f20;fill-opacity:1;fill-rule:nonzero;stroke:none" d="M 0,0 H 10.997 L 5.576,25.214 H 5.419 Z M -1.493,34.954 H 12.488 L 27.335,-21.129 H 15.552 L 12.96,-9.269 H -1.964 l -2.592,-11.86 h -11.782 z"/></g><g transform="translate(352.4621,381.6759)" id="g60"><path id="path62" style="fill:#231f20;fill-opacity:1;fill-rule:nonzero;stroke:none" d="m 0,0 v -39.117 c 0,-5.577 1.335,-9.739 6.598,-9.739 5.263,0 6.597,4.162 6.597,9.739 V 0 h 11.311 v -39.117 c 0,-14.296 -8.718,-18.066 -17.908,-18.066 -9.191,0 -17.909,3.064 -17.909,18.066 V 0 Z"/></g><g transform="translate(386.4713,325.5929)" id="g64"><path id="path66" style="fill:#231f20;fill-opacity:1;fill-rule:nonzero;stroke:none" d="M 0,0 V 56.083 H 11.311 V 9.269 h 20.03 V 0 Z"/></g><g transform="translate(448.6015,381.6759)" id="g68"><path id="path70" style="fill:#231f20;fill-opacity:1;fill-rule:nonzero;stroke:none" d="M 0,0 V -9.269 H -12.253 V -56.083 H -23.564 V -9.269 H -35.818 V 0 Z"/></g></g></g></g></svg>