<?xml version="1.0" encoding="UTF-8" standalone="no"?>
<!DOCTYPE svg PUBLIC "-//W3C//DTD SVG 1.1//EN" "http://www.w3.org/Graphics/SVG/1.1/DTD/svg11.dtd">
<svg version="1.1" xmlns="http://www.w3.org/2000/svg" preserveAspectRatio="xMidYMid meet" viewBox="-42.7 -42.7 385.1 185.3">
  <path fill="#AE2573" d="M85.31 0h-85.31v58.93c0 24.54 18.36 41.07 42.57 41.07 6.53 0 12.64-1.21 18.09-3.45l0 .01 10.17-4.25 14.48 6.61v-98.92zm-42.71 78.19-18.87-8.61v-50.6h18.87v59.21zm24.45-18.44 0 10.04-18.42 8.41 0-10.05 18.42-8.4z"/>
  <path fill="#000000" d="M177.67 39.05c-2.24-4.43-5.19-12.06-5.8-20h-4.65s1.1 14.3 8.04 23.84h4.83c6.93-9.54 8.03-23.84 8.03-23.84h-4.64c-.61 7.94-3.56 15.58-5.81 20m94.84-29.54h-4.77v9.53h-2.9v3.64h2.9v13.37c0 3.66 1.9 6.83 6.63 6.83h2.54v-4.24h-1.72c-2 0-2.68-.98-2.68-2.88v-13.08h4.4v-3.64h-4.4v-9.53zm-151.74 21.92c0 4.43-2.73 7.29-6.96 7.29s-6.96-2.86-6.96-7.29v-21.9h-4.87v22.14c0 3.26 1.2 6.19 3.39 8.26 2.15 2.03 5.14 3.15 8.44 3.14 2.69 0 5.18-.74 7.17-2.12l4.65 2.12v-33.54h-4.86v21.9zm28.04-10.37c-1.39-1.34-3.72-2.37-7.14-2.37-2.25 0-4.32.86-5.62 1.78l-3.9-1.78v24.19h4.77v-14.44c0-3.69 2.09-5.28 4.75-5.28s4.75 1.59 4.76 5.28v14.44h4.77v-15.14c0-2.66-.56-4.9-2.39-6.68m71.38 7.4c0-3.7 2.09-5.28 4.75-5.28.93 0 1.79.19 2.52.6l2.53-4.1c-1.31-.59-2.98-.97-5.05-.97-2.25 0-4.32.86-5.63 1.78l-3.89-1.78v24.19h4.77v-14.44zm-58.25-9.41h-4.76v23.84h4.76v-23.84zm0-9.54h-4.76v4.76h4.76v-4.76zm92.9 33.37h4.76v-23.84h-4.76v23.84zm0-28.6h4.76v-4.77h-4.76v4.77zm-73.71 74.99h4.76v-23.84h-4.76v23.84zm0-28.62h4.76v-4.77h-4.76v4.77zm14.82-31.65c.02-.7.06-1.27.15-1.78.09-.5.23-.94.47-1.49.7-1.67 2.52-2.7 4.76-2.7 1.6 0 3.71.29 4.67 1.68.21.31.54 1.13.25 2.05-.35 1.1-1.45 2.09-3.28 2.76-2.44.9-5.22 1.35-7 1.54l-.02 0v-2.06zm5.98 14.23c2.04 0 3.66-.3 5.1-.94 1.28-.58 2.45-1.44 3.79-2.78l-2.83-2.68c-.85.86-1.68 1.42-2.61 1.76-.92.35-1.95.5-3.36.5-2.94 0-4.97-1.48-5.74-4.18l0-.01.01 0c2.38-.32 6.75-.7 10.41-2.68 1.78-.97 3.09-2.09 3.69-3.72.47-1.27.67-2.86.27-4.3-.54-1.96-1.46-3.11-2.88-4.06-1.61-1.08-3.84-1.44-6.46-1.44-1.59 0-3.04.28-4.29.82-1.23.53-2.31 1.35-3.16 2.39-.86 1.05-1.51 2.34-1.95 3.84-.44 1.52-.67 3.26-.67 5.19 0 4.28 1.05 7.5 3.11 9.57 1.8 1.81 4.35 2.72 7.57 2.72m-70.95 34.22-.01 0v-2.06c.02-.7.06-1.27.14-1.77.09-.5.23-.94.47-1.5.7-1.67 2.52-2.7 4.76-2.7 1.6 0 3.71.29 4.67 1.69.21.31.54 1.13.25 2.04-.35 1.11-1.45 2.09-3.27 2.76-2.44.9-5.22 1.35-7.01 1.54m10.73 1.16c1.78-.97 3.09-2.09 3.69-3.72.47-1.27.67-2.86.27-4.3-.54-1.96-1.46-3.11-2.88-4.06-1.62-1.08-3.84-1.44-6.46-1.44-1.59 0-3.04.28-4.29.82-1.23.53-2.31 1.35-3.16 2.39-.86 1.04-1.51 2.34-1.95 3.85-.44 1.52-.67 3.26-.67 5.18 0 4.28 1.04 7.5 3.11 9.57 1.8 1.81 4.35 2.72 7.57 2.72 2.04 0 3.66-.3 5.1-.94 1.28-.57 2.46-1.43 3.79-2.78l-2.83-2.68c-.85.86-1.68 1.42-2.61 1.77-.92.34-1.95.5-3.36.49-2.94 0-4.97-1.48-5.73-4.17l-.01-.02.02 0c2.38-.32 6.74-.7 10.4-2.68m81.16-1.16-.01 0v-2.06c.02-.7.06-1.27.14-1.77.09-.5.23-.94.47-1.5.7-1.67 2.52-2.7 4.76-2.7 1.6 0 3.71.29 4.67 1.69.21.31.54 1.13.25 2.04-.35 1.11-1.45 2.09-3.28 2.76-2.44.9-5.22 1.35-7 1.54m10.73 1.16c1.78-.97 3.09-2.09 3.69-3.72.47-1.27.67-2.86.27-4.3-.54-1.96-1.46-3.1-2.88-4.06-1.62-1.08-3.84-1.44-6.46-1.44-1.59 0-3.03.28-4.29.82-1.23.53-2.31 1.35-3.16 2.39-.86 1.05-1.51 2.34-1.95 3.85-.44 1.52-.67 3.26-.67 5.18 0 4.28 1.04 7.5 3.11 9.57 1.8 1.81 4.35 2.72 7.57 2.72 2.04 0 3.66-.3 5.1-.94 1.29-.58 2.45-1.43 3.79-2.78l-2.83-2.68c-.85.86-1.68 1.42-2.61 1.77-.92.34-1.95.5-3.36.49-2.94 0-4.98-1.48-5.74-4.17l0-.02.02 0c2.38-.32 6.74-.7 10.4-2.68m51.26-47.56v-2.05c.02-.7.06-1.27.14-1.78.09-.5.23-.94.47-1.5.7-1.67 2.52-2.7 4.76-2.7 1.6 0 3.71.29 4.67 1.69.21.31.54 1.13.25 2.04-.35 1.11-1.45 2.09-3.28 2.77-2.44.9-5.22 1.35-7 1.53h-.01zm9.42 7.54c-.92.34-1.95.5-3.36.5-2.94 0-4.98-1.48-5.74-4.18l0-.02.02 0c2.38-.32 6.74-.7 10.4-2.68 1.78-.97 3.09-2.09 3.69-3.71.47-1.27.67-2.86.27-4.31-.54-1.96-1.46-3.1-2.88-4.05-1.61-1.08-3.84-1.45-6.46-1.45-1.59 0-3.04.28-4.29.82-1.23.53-2.31 1.35-3.16 2.4-.86 1.04-1.51 2.34-1.95 3.84-.44 1.52-.67 3.26-.67 5.18 0 4.28 1.04 7.5 3.11 9.57 1.8 1.81 4.35 2.72 7.57 2.73 2.04 0 3.66-.3 5.1-.95 1.28-.57 2.46-1.43 3.79-2.78l-2.83-2.68c-.85.86-1.68 1.42-2.61 1.77m-51.14-9.73-3.74-.33c-2.52-.24-3.27-1.32-3.27-2.75 0-1.8 1.45-3.07 4.3-3.07 2.24 0 4.34.47 5.84 1.75l3.01-3.07c-2.2-1.94-5.24-2.69-8.79-2.69-4.95 0-8.92 2.65-8.93 7.32 0 4.21 2.57 6.24 7.01 6.62l3.79.33c2.29.19 3.18 1.23 3.18 2.84 0 2.26-2.29 3.3-5.19 3.31-2.34 0-4.9-.52-6.83-2.51l-3.12 3.17c2.8 2.79 6.07 3.45 9.95 3.45 5.65 0 9.86-2.6 9.86-7.61 0-4.25-2.62-6.38-7.06-6.76m-126.17 52.87c-.01 1.7-1.6 3.55-4.46 3.55-3.88 0-6.03-2.57-6.03-6.64v-3.31c.05-1.45.14-2.15.61-3.23.75-1.77 2.7-2.66 4.74-2.65 2.92 0 5.14.94 5.14 3.41.01 2.22.01 6.65 0 8.87m0-15.64c-1.36-.6-3.07-.94-5.16-.95-6.87 0-10.05 4.44-10.04 12.1 0 9.02 4.72 12.15 10.65 12.15 2.21 0 3.89-.75 5.34-1.81l3.98 1.81v-33.5h-4.77v10.2zm48.55 16.35v-26.55h-4.77v26.82c0 3.51 1.96 6.55 6.5 6.55h10.16v-4.06h-9.32c-1.92 0-2.57-.94-2.57-2.77m32.06-.28v-26.26h-4.76v26.55c0 3.66 1.9 6.83 6.63 6.83h2.53v-4.24h-1.71c-2 0-2.68-.98-2.69-2.88m13.48 0v-26.26h-4.76v26.55c0 3.66 1.9 6.83 6.63 6.83h2.53v-4.24h-1.71c-2 0-2.68-.98-2.69-2.88m84.64-73.86-10.88 4.96v4.17l10.88-4.97v-4.16z"/>
</svg>